<svg xmlns="http://www.w3.org/2000/svg" width="61.933" height="61.604" viewBox="0 0 61.933 61.604"><defs><style>.a{fill:#fff;}</style></defs><path class="a" d="M5.556,37.235A14.809,14.809,0,0,0,16.092,51.5a.745.745,0,0,0,.716-.239L20.271,47a9.2,9.2,0,0,1-6.805-2.865,9.825,9.825,0,0,1-.328-13.461,9.2,9.2,0,0,1,6.268-3.1l1.582-.209c.328,0,.478-.119.478-.388l.239-1.642a12.43,12.43,0,0,1,4.149-8.148,12.29,12.29,0,0,1,8.506-3.223,12.379,12.379,0,0,1,8.566,3.253,11.976,11.976,0,0,1,4.089,8.118l.209,1.731a.6.6,0,0,0,.657.507h4.835a9.681,9.681,0,0,1,9.7,9.67,9.414,9.414,0,0,1-2.507,6.507,9.655,9.655,0,0,1-6.178,3.223,8.273,8.273,0,0,0-1.463.179,1.472,1.472,0,0,0-1.224.686L44,56.158a2.327,2.327,0,0,0-.478,1.88,2.547,2.547,0,0,0,.925,1.7,2.161,2.161,0,0,0,1.671.567,2.043,2.043,0,0,0,1.821-1.045l6.328-7.283A14.827,14.827,0,0,0,67.489,37.235a14.61,14.61,0,0,0-1.164-5.76,14.331,14.331,0,0,0-7.85-7.85,14.5,14.5,0,0,0-5.76-1.164h-.955A17.87,17.87,0,0,0,34.329,8.94a17.7,17.7,0,0,0-7.85,1.791,17.915,17.915,0,0,0-6.208,4.955A16.948,16.948,0,0,0,16.9,22.908,14.051,14.051,0,0,0,8.69,28.042,14.472,14.472,0,0,0,5.556,37.235ZM15.644,61.172a3.8,3.8,0,0,0,.179.9,2.278,2.278,0,0,0,1.313,1.313,2.456,2.456,0,0,0,2,.06A2.266,2.266,0,0,0,20.509,62.1a2.322,2.322,0,0,0,.06-1.94A2.172,2.172,0,0,0,19.2,58.874a2.224,2.224,0,0,0-1.94-.09,2.535,2.535,0,0,0-1.373,1.4A2.181,2.181,0,0,0,15.644,61.172Zm5.522-7.283v.3a2.346,2.346,0,0,0,.9,1.671,3.751,3.751,0,0,0,1.851.567,2.359,2.359,0,0,0,1.821-.985l6.925-8.268a2.83,2.83,0,0,0,.6-1.97,2.372,2.372,0,0,0-.836-1.582,2.331,2.331,0,0,0-1.552-.657,1.708,1.708,0,0,0-.418.03,2.62,2.62,0,0,0-1.671.985l-7.044,8.268A2.5,2.5,0,0,0,21.166,53.89Zm2.3,14.088a1.969,1.969,0,0,0,.239.955,2.52,2.52,0,0,0,1.313,1.4,2.341,2.341,0,0,0,.985.209,1.77,1.77,0,0,0,.925-.209,2.41,2.41,0,0,0,1.4-1.224,2.456,2.456,0,0,0,.06-2,2.124,2.124,0,0,0-1.343-1.373,2.456,2.456,0,0,0-2-.06A2.144,2.144,0,0,0,23.7,67.022,1.688,1.688,0,0,0,23.464,67.978Zm4.984-7.014v.328a2.379,2.379,0,0,0,.925,1.642,2.573,2.573,0,0,0,1.642.657,2.513,2.513,0,0,0,1.88-.985l12.984-15.64a2.257,2.257,0,0,0,.507-1.552v-.358a2.271,2.271,0,0,0-.806-1.582,2.351,2.351,0,0,0-1.552-.6h-.388A2.041,2.041,0,0,0,42,43.8L29.016,59.322A2.555,2.555,0,0,0,28.449,60.964ZM38.925,64.4a2.646,2.646,0,0,0,.179.9,2.443,2.443,0,0,0,1.373,1.4,3.709,3.709,0,0,0,.925.179,1.961,1.961,0,0,0,1.015-.239,2.475,2.475,0,0,0,1.433-3.253,2.278,2.278,0,0,0-1.313-1.313L41.462,61.8c-.269.06-.567.119-.955.209a2.172,2.172,0,0,0-1.343,1.313A3.056,3.056,0,0,0,38.925,64.4Z" transform="translate(-5.556 -8.94)"/></svg>