<?xml version="1.0" encoding="utf-8"?>
<!-- Generator: Adobe Illustrator 21.0.0, SVG Export Plug-In . SVG Version: 6.00 Build 0)  -->
<svg version="1.1" id="Layer_1" xmlns="http://www.w3.org/2000/svg" xmlns:xlink="http://www.w3.org/1999/xlink" x="0px" y="0px"
	 viewBox="0 0 32.3 25.1" style="enable-background:new 0 0 32.3 25.1;" xml:space="preserve">
<style type="text/css">
	.st0{fill:#FFFFFF;}
</style>
<path id="Icon_weather-day-cloudy" class="st0" d="M0,19.2c0,3.3,2.6,5.9,5.9,5.9c0,0,0,0,0,0h13c3.3,0,5.9-2.6,6-5.9c0,0,0,0,0,0
	c0-0.8-0.2-1.6-0.5-2.4c0.9-1.1,1.4-2.5,1.4-4c0-0.8-0.2-1.7-0.5-2.4c-1-2.3-3.3-3.8-5.8-3.8c-1.8,0-3.5,0.8-4.7,2.1
	c-1-0.5-2.1-0.8-3.2-0.8c-3.3,0-6.2,2.3-7,5.6c-1.3,0.3-2.5,1-3.3,2.1C0.4,16.5,0,17.8,0,19.2z M2.1,19.2c0-1,0.3-1.9,1-2.6
	c0.7-0.7,1.6-1.2,2.5-1.3l0.6,0c0.1,0,0.2-0.1,0.2-0.2c0,0,0,0,0,0l0.1-0.6c0.1-1.3,0.7-2.4,1.7-3.3c0.9-0.9,2.1-1.3,3.4-1.3
	c1.3,0,2.5,0.5,3.4,1.3c1,0.8,1.5,2,1.6,3.3l0.1,0.7c0,0.1,0.1,0.2,0.3,0.2h1.9c2.1,0,3.9,1.7,3.9,3.9c0,1-0.4,2.1-1.1,2.8
	c-0.7,0.7-1.7,1.2-2.7,1.2h-13c-1,0-2-0.4-2.7-1.2C2.5,21.2,2,20.2,2.1,19.2z M10.1,4.5c0,0.3,0.1,0.5,0.3,0.8L11.2,6
	c0.2,0.2,0.5,0.3,0.8,0.3c0.3,0,0.5-0.1,0.7-0.3c0.2-0.2,0.3-0.5,0.3-0.7c0-0.3-0.1-0.5-0.3-0.7l-0.7-0.8c-0.2-0.2-0.5-0.3-0.7-0.3
	c-0.3,0-0.5,0.1-0.7,0.3C10.2,3.9,10.1,4.2,10.1,4.5z M16.5,9.8c1.7-1.6,4.3-1.6,6,0c0.8,0.8,1.3,1.9,1.2,3c0,0.8-0.2,1.5-0.6,2.2
	c-1.1-1.1-2.6-1.8-4.2-1.7h-0.4C18.2,12,17.5,10.7,16.5,9.8z M18.5,3.4c0,0.3,0.1,0.5,0.3,0.7c0.2,0.2,0.4,0.3,0.7,0.3
	c0.3,0,0.5-0.1,0.7-0.3c0.2-0.2,0.3-0.5,0.3-0.7V1c0-0.3-0.1-0.5-0.3-0.7C20,0.1,19.7,0,19.4,0c-0.3,0-0.5,0.1-0.7,0.3
	c-0.2,0.2-0.3,0.4-0.3,0.7C18.5,1,18.5,3.4,18.5,3.4z M25.1,6.2c0,0.3,0.1,0.5,0.3,0.7c0.2,0.2,0.5,0.3,0.7,0.3
	c0.3,0,0.5-0.1,0.7-0.3l1.7-1.7c0.2-0.2,0.3-0.5,0.3-0.8c0-0.5-0.4-1-1-1c0,0,0,0,0,0c-0.3,0-0.5,0.1-0.7,0.3l-1.8,1.7
	C25.2,5.7,25.1,5.9,25.1,6.2z M26,20.4c0,0.3,0.1,0.6,0.3,0.8l0.8,0.8c0.2,0.2,0.4,0.3,0.7,0.3c0.3,0,0.5-0.1,0.7-0.3
	c0.2-0.2,0.3-0.5,0.3-0.7c0-0.3-0.1-0.5-0.3-0.7l-0.8-0.8c-0.2-0.2-0.4-0.3-0.7-0.3c-0.3,0-0.5,0.1-0.7,0.3
	C26.1,19.9,26,20.1,26,20.4z M27.8,12.8c0,0.3,0.1,0.5,0.3,0.7c0.2,0.2,0.5,0.3,0.7,0.3h2.4c0.3,0,0.5-0.1,0.7-0.3
	c0.2-0.2,0.3-0.4,0.3-0.7c0-0.3-0.1-0.5-0.3-0.7c-0.2-0.2-0.4-0.3-0.7-0.3h-2.4c-0.3,0-0.5,0.1-0.7,0.3
	C27.9,12.3,27.8,12.6,27.8,12.8z"/>
</svg>
