<?xml version="1.0" encoding="utf-8"?>
<!-- Generator: Adobe Illustrator 21.0.0, SVG Export Plug-In . SVG Version: 6.00 Build 0)  -->
<svg version="1.1" id="Layer_1" xmlns="http://www.w3.org/2000/svg" xmlns:xlink="http://www.w3.org/1999/xlink" x="0px" y="0px"
	 viewBox="0 0 34.7 30" style="enable-background:new 0 0 34.7 30;" xml:space="preserve">
<style type="text/css">
	.st0{fill:#FFFFFF;}
</style>
<path id="Icon_weather-day-cloudy-high" class="st0" d="M0,12c0-1.4,0.5-2.8,1.4-3.9C2.2,7,3.4,6.2,4.8,5.9c0.4-1.7,1.3-3.2,2.7-4.2
	c2.7-2.2,6.6-2.2,9.3,0c1.3,1,2.3,2.5,2.6,4.2h0.4c1.7,0,3.3,0.6,4.4,1.8c1.2,1.1,1.9,2.7,1.8,4.4v0.2c2,2.1,2.3,5.3,0.9,7.8
	c-0.6,1-1.4,1.8-2.4,2.4c-2.3,1.3-5.2,1.1-7.3-0.5c-1.1-0.9-2-2.1-2.3-3.5H6c-1.6-0.1-3.1-0.7-4.3-1.9C0.6,15.2,0,13.6,0,12z
	 M2.1,12c0,2.2,1.7,4,3.9,4.1h14.1c1.1,0,2-0.5,2.7-1.3C23.6,14.1,24,13,24,12c0-1.1-0.4-2.1-1.2-2.9c-0.8-0.8-1.8-1.2-2.9-1.2h-2
	c-0.1,0-0.2-0.1-0.2-0.2c0,0,0,0,0,0L17.5,7c-0.3-2.7-2.6-4.8-5.3-4.8c-2.8,0-5.1,2.1-5.3,4.8L6.7,7.7c0,0.1-0.1,0.2-0.3,0.2H5.9
	c-1,0.1-2,0.6-2.6,1.3C2.5,10,2.1,11,2.1,12z M11.8,26.1c-0.4-0.4-0.4-1.1,0-1.5l1.8-1.8c0.2-0.2,0.5-0.3,0.8-0.3
	c0.3,0,0.5,0.1,0.7,0.3c0.2,0.2,0.3,0.5,0.3,0.7c0,0.3-0.1,0.6-0.3,0.8l-1.8,1.8c-0.2,0.2-0.5,0.3-0.8,0.3
	C12.3,26.4,12,26.3,11.8,26.1z M17.2,18.2c0.7,1.7,2.3,2.8,4.1,2.8c1.2,0,2.3-0.5,3.1-1.3c0.8-0.8,1.3-2,1.3-3.2
	c0-0.6-0.1-1.1-0.3-1.6c-0.5,1-1.3,1.8-2.2,2.3c-0.9,0.6-2,0.9-3.1,1H17.2z M20.2,26.4c0-0.3,0.1-0.5,0.3-0.7
	c0.2-0.2,0.5-0.3,0.8-0.3c0.3,0,0.6,0.1,0.8,0.3c0.2,0.2,0.3,0.4,0.3,0.7v2.6c0,0.3-0.1,0.6-0.3,0.8c-0.4,0.4-1,0.4-1.4,0.1
	c0,0,0,0-0.1-0.1c-0.2-0.2-0.3-0.5-0.3-0.8L20.2,26.4L20.2,26.4z M27.1,23.5c0-0.3,0.1-0.5,0.3-0.7c0.2-0.2,0.5-0.3,0.7-0.3
	c0.3,0,0.5,0.1,0.7,0.3l1.8,1.8c0.2,0.2,0.3,0.5,0.3,0.8c0,0.3-0.1,0.6-0.3,0.8c-0.2,0.2-0.5,0.3-0.8,0.3c-0.3,0-0.6-0.1-0.8-0.3
	l-1.8-1.8C27.2,24,27.1,23.8,27.1,23.5L27.1,23.5z M27.1,9.7c0-0.3,0.1-0.5,0.3-0.7l1.8-1.8c0.2-0.2,0.5-0.3,0.8-0.3
	c0.3,0,0.6,0.1,0.8,0.3c0.2,0.2,0.3,0.5,0.3,0.8c0,0.3-0.1,0.5-0.3,0.8l-1.8,1.8c-0.2,0.2-0.5,0.3-0.7,0.3c-0.3,0-0.5-0.1-0.7-0.3
	C27.2,10.3,27.1,10,27.1,9.7L27.1,9.7z M30,16.6c0-0.3,0.1-0.6,0.3-0.8c0.2-0.2,0.5-0.3,0.7-0.3h2.5c0.3,0,0.6,0.1,0.8,0.3
	c0.2,0.2,0.3,0.5,0.3,0.8c0,0.3-0.1,0.6-0.3,0.8c-0.2,0.2-0.5,0.3-0.8,0.3H31c-0.3,0-0.5-0.1-0.7-0.3C30.1,17.2,30,16.9,30,16.6
	L30,16.6z"/>
</svg>
