<svg xmlns="http://www.w3.org/2000/svg" width="119.544" height="119.656" viewBox="0 0 119.544 119.656"><defs><style>.a{fill:#fff;}</style></defs><path class="a" d="M5.244,64.572a4.754,4.754,0,0,1,1.407-3.49,4.863,4.863,0,0,1,3.377-1.351H21.51a4.265,4.265,0,0,1,3.264,1.407,5.288,5.288,0,0,1,.056,6.866,4.183,4.183,0,0,1-3.264,1.407H10.084a4.593,4.593,0,0,1-3.377-1.407A4.681,4.681,0,0,1,5.244,64.572Zm16.1,39a5.213,5.213,0,0,1,1.294-3.433l8.274-8.048A4.327,4.327,0,0,1,34.229,90.8a4.767,4.767,0,0,1,3.377,1.294A4.208,4.208,0,0,1,38.957,95.3a5.31,5.31,0,0,1-1.351,3.6L29.614,106.9a5.11,5.11,0,0,1-6.923,0A4.544,4.544,0,0,1,21.341,103.576Zm0-77.895a5.213,5.213,0,0,1,1.294-3.433,5.4,5.4,0,0,1,3.6-1.407,4.731,4.731,0,0,1,3.321,1.351l8.048,8.274a4.369,4.369,0,0,1,1.351,3.321,4.617,4.617,0,0,1-4.728,4.728,4.369,4.369,0,0,1-3.321-1.351l-8.217-8.048A4.711,4.711,0,0,1,21.341,25.681ZM35.693,64.572a28.407,28.407,0,0,1,3.94-14.633,29.393,29.393,0,0,1,10.75-10.75,28.874,28.874,0,0,1,26-1.576,29.4,29.4,0,0,1,9.343,6.3,29.533,29.533,0,0,1,8.555,20.712,28.462,28.462,0,0,1-3.94,14.69A29.517,29.517,0,0,1,79.649,90.012a29.356,29.356,0,0,1-29.379,0A29.517,29.517,0,0,1,39.576,79.318,29.9,29.9,0,0,1,35.693,64.572Zm9.568,0A19.889,19.889,0,0,0,65.072,84.5,19.985,19.985,0,0,0,85,64.572a18.973,18.973,0,0,0-5.853-13.9,19.284,19.284,0,0,0-14.071-5.741A19.03,19.03,0,0,0,51.114,50.67,18.759,18.759,0,0,0,45.261,64.572ZM60.232,108.36a4.421,4.421,0,0,1,1.407-3.377,4.766,4.766,0,0,1,3.377-1.351,4.711,4.711,0,0,1,3.433,1.351A4.582,4.582,0,0,1,69.8,108.36v11.2a4.755,4.755,0,0,1-1.407,3.49,4.593,4.593,0,0,1-3.377,1.407,4.505,4.505,0,0,1-3.377-1.407,4.755,4.755,0,0,1-1.407-3.49v-11.2Zm0-87.238V9.64a4.593,4.593,0,0,1,1.407-3.377A4.681,4.681,0,0,1,65.072,4.8a4.505,4.505,0,0,1,3.377,1.407,4.593,4.593,0,0,1,1.407,3.377V21.122a4.265,4.265,0,0,1-1.407,3.264,4.714,4.714,0,0,1-3.377,1.294A4.865,4.865,0,0,1,61.7,24.386,4.429,4.429,0,0,1,60.232,21.122ZM91.3,95.3a4.42,4.42,0,0,1,4.446-4.446,4.767,4.767,0,0,1,3.377,1.294l8.217,8.048a4.9,4.9,0,0,1,1.351,3.433,4.544,4.544,0,0,1-1.351,3.321,5.012,5.012,0,0,1-6.754,0L92.594,98.96A5.48,5.48,0,0,1,91.3,95.3Zm0-61.46a4.364,4.364,0,0,1,1.294-3.321l7.992-8.274a4.731,4.731,0,0,1,3.321-1.351,4.421,4.421,0,0,1,3.377,1.407,4.593,4.593,0,0,1,1.407,3.377,4.752,4.752,0,0,1-1.351,3.49l-8.217,8.048a4.964,4.964,0,0,1-3.377,1.351,4.088,4.088,0,0,1-3.152-1.351A4.767,4.767,0,0,1,91.3,33.842Zm12.72,30.73a5.033,5.033,0,0,1,1.351-3.49,4.383,4.383,0,0,1,3.208-1.351h11.369a4.777,4.777,0,0,1,3.377,8.217,4.593,4.593,0,0,1-3.377,1.407H108.578a4.183,4.183,0,0,1-3.264-1.407A4.865,4.865,0,0,1,104.02,64.572Z" transform="translate(-5.244 -4.8)"/></svg>