<?xml version="1.0" encoding="utf-8"?>
<!-- Generator: Adobe Illustrator 21.0.0, SVG Export Plug-In . SVG Version: 6.00 Build 0)  -->
<svg version="1.1" id="Layer_1" xmlns="http://www.w3.org/2000/svg" xmlns:xlink="http://www.w3.org/1999/xlink" x="0px" y="0px"
	 viewBox="0 0 26.1 19.8" style="enable-background:new 0 0 26.1 19.8;" xml:space="preserve">
<style type="text/css">
	.st0{fill:#FFFFFF;}
</style>
<path id="Icon_weather-night-alt-cloudy" class="st0" d="M0,13.8c0-1.3,0.4-2.7,1.3-3.7c0.8-1.1,2-1.8,3.3-2.1
	c0.3-1.2,0.8-2.3,1.7-3.2c2.1-2.3,5.3-3,8.2-1.8c0.3-0.5,0.7-1,1.2-1.5C16,1.2,16.5,0.9,17,0.6c0.5-0.2,0.9-0.4,1.4-0.5
	C18.9,0.1,19.3,0,19.8,0c0.5,0,1,0.1,1.5,0.2l1,0.3c0.2,0.1,0.2,0.2,0.2,0.3l-0.2,0.7c-0.1,0.3-0.1,0.7-0.1,1c0,0.4,0.1,0.8,0.2,1.1
	c0.1,0.4,0.3,0.8,0.5,1.1c0.3,0.4,0.6,0.7,1,1c0.4,0.3,0.9,0.5,1.4,0.7l0.7,0.3c0.1,0,0.2,0.1,0.2,0.2c0,0,0,0.1,0,0.1l-0.2,0.8
	c-0.3,1.2-0.9,2.3-1.8,3.1c0.5,0.8,0.7,1.7,0.8,2.7c0,0.1,0,0.2,0,0.3c0,1-0.3,2.1-0.8,3c-0.5,0.9-1.3,1.6-2.2,2.2
	c-0.9,0.5-1.9,0.8-3,0.8h-13c-1,0-2.1-0.3-3-0.8c-0.9-0.5-1.6-1.3-2.1-2.2C0.3,15.9,0,14.9,0,13.8z M2.1,13.8c0,1,0.4,2,1.2,2.8
	c0.7,0.8,1.7,1.2,2.7,1.2h13c1,0,2-0.4,2.7-1.2c0.7-0.7,1.2-1.7,1.1-2.8c0-1-0.4-2-1.2-2.7c-0.7-0.7-1.7-1.1-2.7-1.1h-2.1l-0.1-0.9
	C16.5,7.9,16,6.8,15.1,6c-0.9-0.8-2-1.3-3.2-1.4c-0.1,0-0.1,0-0.2,0c-0.1,0-0.1,0-0.2,0c-0.6,0-1.3,0.1-1.8,0.3v0
	C8,5.6,6.7,7.2,6.5,9.1L6.4,10l-0.8,0c-1,0.1-1.9,0.6-2.5,1.3C2.4,12,2,12.9,2.1,13.8z M16.2,4.1c1.2,1,2,2.3,2.4,3.8h0.4
	c1.4,0,2.8,0.5,3.8,1.4c0.4-0.4,0.7-0.8,0.9-1.3c-1.1-0.5-2-1.3-2.6-2.4c-0.6-1-0.9-2.2-0.9-3.3V2.1c-0.1,0-0.2,0-0.3,0
	c-0.7,0-1.4,0.2-2,0.5C17.1,2.9,16.5,3.5,16.2,4.1z"/>
</svg>
