<?xml version="1.0" encoding="utf-8"?>
<!-- Generator: Adobe Illustrator 21.0.0, SVG Export Plug-In . SVG Version: 6.00 Build 0)  -->
<svg version="1.1" id="Layer_1" xmlns="http://www.w3.org/2000/svg" xmlns:xlink="http://www.w3.org/1999/xlink" x="0px" y="0px"
	 viewBox="0 0 26.2 26.6" style="enable-background:new 0 0 26.2 26.6;" xml:space="preserve">
<style type="text/css">
	.st0{fill:#FFFFFF;}
</style>
<path id="Icon_weather-night-alt-thunderstorm" class="st0" d="M0,13.9c0,1.3,0.4,2.5,1.2,3.6c0.8,1,1.9,1.8,3.1,2.1l-0.8,2
	c0,0.2,0,0.3,0.2,0.3h2.5l-1.2,4.2h0.4l4.7-5.9c0,0,0.1-0.1,0-0.2c0-0.1-0.1-0.1-0.2-0.1H7.3l3-5.6c0.1-0.2,0-0.3-0.2-0.3H6.6
	c-0.1,0-0.2,0.1-0.3,0.2L5,17.7c-1.7-0.5-3-2-3-3.8c0-1,0.4-1.9,1-2.6c0.7-0.7,1.6-1.2,2.5-1.3l0.6-0.1c0.2,0,0.2-0.1,0.2-0.2
	l0.1-0.6C6.8,6.5,9,4.5,11.6,4.5c2.6,0,4.8,2,5.1,4.6l0.1,0.7c0,0.1,0.1,0.2,0.2,0.2h1.9c1,0,2.1,0.4,2.8,1.1
	c1.5,1.5,1.6,3.9,0.1,5.4c0,0,0,0,0,0c-0.7,0.7-1.6,1.2-2.6,1.2C19,17.8,19,17.9,19,18v1.7c0,0.1,0.1,0.2,0.2,0.2c1,0,2-0.3,2.9-0.9
	c1.8-1.1,2.8-3,2.8-5.1c0-1-0.3-2-0.8-2.9C25,10.1,25.7,9,26,7.8L26.2,7c0,0,0-0.1,0-0.1c0-0.1-0.1-0.1-0.2-0.2l-0.7-0.2
	c-0.7-0.2-1.3-0.5-1.8-1c-0.5-0.4-0.8-0.9-1-1.5c-0.2-0.5-0.3-1-0.3-1.6c0-0.3,0-0.6,0.1-1l0.2-0.7c0-0.1,0-0.2-0.2-0.3
	c-0.4-0.1-0.7-0.2-1.1-0.3C20.8,0,20.3,0,19.9,0c-0.5,0-0.9,0.1-1.4,0.2c-0.5,0.1-1,0.3-1.4,0.5c-0.5,0.2-1,0.6-1.4,1
	c-0.5,0.4-0.9,0.9-1.2,1.5c-0.9-0.3-1.9-0.5-2.9-0.5c-3.4,0-6.3,2.3-7,5.6c-1.3,0.3-2.5,1-3.3,2.1C0.4,11.3,0,12.6,0,13.9z
	 M9.7,25.7c0,0.2,0.1,0.4,0.2,0.6c0.1,0.2,0.3,0.3,0.5,0.4c0.1,0,0.2,0,0.4,0c0.5,0,0.9-0.3,0.9-0.8l2.8-10.5c0.1-0.3,0-0.5-0.1-0.8
	c-0.1-0.2-0.3-0.4-0.6-0.5C13.6,14,13.3,14,13,14.2c-0.2,0.1-0.4,0.3-0.5,0.6L9.8,25.4C9.7,25.5,9.7,25.6,9.7,25.7L9.7,25.7z
	 M14.7,22.1c0,0.2,0.1,0.4,0.2,0.6c0.1,0.2,0.3,0.3,0.6,0.4c0.1,0,0.1,0,0.2,0c0.1,0,0.1,0,0.2,0c0.4,0,0.8-0.3,0.9-0.8l1.8-6.9
	c0.1-0.3,0-0.6-0.1-0.8c-0.1-0.2-0.4-0.4-0.6-0.5C17.5,14,17.2,14,17,14.2c-0.2,0.1-0.4,0.3-0.5,0.6l-1.8,7
	C14.7,21.9,14.7,22,14.7,22.1z M16.2,4.2c0.4-0.7,0.9-1.2,1.6-1.6c0.6-0.4,1.4-0.5,2.1-0.5c0.1,0,0.2,0,0.3,0v0.4
	c0,2.4,1.4,4.6,3.5,5.6c-0.2,0.5-0.5,0.9-0.9,1.3C21.8,8.4,20.4,7.9,19,8h-0.4C18.3,6.5,17.4,5.1,16.2,4.2z"/>
</svg>
