<?xml version="1.0" encoding="utf-8"?>
<!-- Generator: Adobe Illustrator 21.0.0, SVG Export Plug-In . SVG Version: 6.00 Build 0)  -->
<svg version="1.1" id="Layer_1" xmlns="http://www.w3.org/2000/svg" xmlns:xlink="http://www.w3.org/1999/xlink" x="0px" y="0px"
	 viewBox="0 0 29.7 21" style="enable-background:new 0 0 29.7 21;" xml:space="preserve">
<style type="text/css">
	.st0{fill:#FFFFFF;}
</style>
<path id="Icon_weather-fog" class="st0" d="M0,16.4c0-0.3,0.1-0.5,0.3-0.7c0.2-0.2,0.5-0.3,0.8-0.3h22.4c0.5,0,1,0.4,1,0.9
	c0,0,0,0,0,0.1c0,0.3-0.1,0.5-0.3,0.7c-0.2,0.2-0.5,0.3-0.7,0.3H1.1c-0.3,0-0.5-0.1-0.8-0.3C0.1,16.9,0,16.6,0,16.4z M3.1,12.6
	c0-0.3,0.1-0.5,0.3-0.7c0.2-0.2,0.4-0.3,0.7-0.3h22.4c0.5,0,1,0.4,1,1c0,0,0,0,0,0c0,0.3-0.1,0.5-0.3,0.7c-0.2,0.2-0.4,0.3-0.7,0.3
	H4.2c-0.3,0-0.5-0.1-0.7-0.3C3.2,13.1,3.1,12.9,3.1,12.6z M3.3,9.7c0,0.1,0.1,0.2,0.2,0.2h1.7c0.1,0,0.2-0.1,0.2-0.2
	c0.3-0.6,0.7-1.1,1.3-1.5c0.5-0.4,1.2-0.6,1.9-0.7l0.7-0.1c0.1,0,0.2-0.1,0.2-0.2l0.1-0.6c0.1-1.3,0.7-2.4,1.6-3.2
	c1.9-1.7,4.9-1.7,6.8,0c0.9,0.8,1.5,2,1.6,3.2l0.1,0.7c0,0.1,0.1,0.2,0.2,0.2h1.9c0.8,0,1.5,0.2,2.1,0.6c0.6,0.4,1.1,1,1.4,1.6
	c0.1,0.1,0.2,0.2,0.3,0.2h1.7c0.1,0,0.2-0.1,0.2-0.3c-0.3-1.2-1.1-2.3-2.1-3c-1-0.8-2.3-1.2-3.6-1.2h-0.4c-0.4-1.6-1.3-2.9-2.5-3.9
	c-1.2-1-2.8-1.5-4.4-1.5c-1.6,0-3.2,0.5-4.5,1.6C8.8,2.6,8,4,7.6,5.6c-1,0.2-1.9,0.7-2.7,1.5C4.2,7.8,3.6,8.7,3.3,9.7L3.3,9.7
	C3.3,9.6,3.3,9.7,3.3,9.7z M5.2,20c0-0.3,0.1-0.5,0.3-0.7C5.7,19.1,6,19,6.3,19h22.4c0.3,0,0.5,0.1,0.7,0.3c0.2,0.2,0.3,0.4,0.3,0.7
	c0,0.6-0.5,1-1,1c0,0,0,0,0,0H6.3c-0.3,0-0.5-0.1-0.7-0.3C5.3,20.6,5.2,20.3,5.2,20z"/>
</svg>
