<?xml version="1.0" encoding="utf-8"?>
<!-- Generator: Adobe Illustrator 21.0.0, SVG Export Plug-In . SVG Version: 6.00 Build 0)  -->
<svg version="1.1" id="Layer_1" xmlns="http://www.w3.org/2000/svg" xmlns:xlink="http://www.w3.org/1999/xlink" x="0px" y="0px"
	 viewBox="0 0 17 17" style="enable-background:new 0 0 17 17;" xml:space="preserve">
<style type="text/css">
	.st0{fill:#FFFFFF;}
</style>
<path id="Icon_weather-night-clear" class="st0" d="M0,8.5c0-2.3,0.9-4.4,2.5-6c0.8-0.8,1.7-1.4,2.7-1.8C6.2,0.2,7.4,0,8.5,0h1.4
	c0.2,0,0.3,0.2,0.3,0.3l0.1,1.1c0,1.5,0.6,2.9,1.6,3.9c1,1,2.4,1.7,3.8,1.7l1,0.1c0.1,0,0.3,0.1,0.3,0.2c0,0,0,0,0,0.1v1.2
	c0,1.5-0.4,3-1.1,4.3c-0.7,1.3-1.8,2.4-3.1,3.1C11.5,16.7,10,17,8.5,17c-1.1,0-2.3-0.2-3.3-0.7c-1-0.4-1.9-1-2.7-1.8
	c-0.8-0.8-1.4-1.7-1.8-2.7C0.2,10.8,0,9.7,0,8.5z M2.2,8.5c0,1.7,0.7,3.4,2,4.6c0.6,0.6,1.3,1,2,1.3c0.7,0.3,1.5,0.5,2.3,0.5
	c0.7,0,1.4-0.1,2.1-0.4c0.7-0.3,1.4-0.7,2-1.2c0.6-0.5,1.2-1.2,1.6-1.9c0.4-0.8,0.7-1.6,0.9-2.5c-1.8-0.3-3.4-1.2-4.7-2.5
	C9.2,5.2,8.5,3.7,8.3,2C7.2,2,6.1,2.4,5.2,3C4.2,3.6,3.5,4.5,3,5.4C2.5,6.4,2.2,7.4,2.2,8.5L2.2,8.5z"/>
</svg>
