<?xml version="1.0" encoding="utf-8"?>
<!-- Generator: Adobe Illustrator 21.0.0, SVG Export Plug-In . SVG Version: 6.00 Build 0)  -->
<svg version="1.1" id="Layer_1" xmlns="http://www.w3.org/2000/svg" xmlns:xlink="http://www.w3.org/1999/xlink" x="0px" y="0px"
	 viewBox="0 0 27.4 24" style="enable-background:new 0 0 27.4 24;" xml:space="preserve">
<style type="text/css">
	.st0{fill:#FFFFFF;}
</style>
<path id="Icon_weather-night-alt-cloudy-high" class="st0" d="M0,11.4c0-1.3,0.4-2.7,1.3-3.7c0.8-1.1,2-1.8,3.3-2.1
	c0.4-1.6,1.3-3,2.5-4c2.6-2.1,6.3-2.1,8.9,0c1.3,1,2.2,2.4,2.5,3.9H19c1,0,2.1,0.3,3,0.8c0.9,0.5,1.7,1.2,2.2,2.1
	c1.2,2.1,1,4.8-0.5,6.7c0.8,0.7,1.7,1,2.7,1l0.8,0.1c0.1,0,0.2,0.1,0.2,0.2v0.9c0,3.7-2.9,6.7-6.6,6.7c0,0,0,0-0.1,0
	c-0.9,0-1.8-0.2-2.6-0.5c-0.8-0.3-1.5-0.8-2.1-1.4c-0.6-0.6-1.1-1.3-1.4-2.1c-0.3-0.8-0.5-1.7-0.5-2.6H5.8c-1.5,0-3-0.7-4.1-1.8
	C0.6,14.4,0,12.9,0,11.4z M2.1,11.4c0,1,0.4,2,1.1,2.7c0.7,0.7,1.6,1.2,2.6,1.2h13.4c1,0,2-0.5,2.6-1.2c0.7-0.7,1.1-1.7,1.1-2.7
	c0-1-0.4-2-1.2-2.7C21,7.9,20,7.5,19,7.5H17c-0.1,0-0.2-0.1-0.2-0.2c0,0,0,0,0,0l-0.1-0.7c-0.1-1.3-0.7-2.4-1.7-3.3
	C14.1,2.5,12.9,2,11.6,2c-1.3,0-2.5,0.4-3.4,1.3c-0.9,0.8-1.5,2-1.6,3.3L6.5,7.3c0,0.1-0.1,0.2-0.2,0.2H5.6c-1,0.1-1.9,0.6-2.5,1.3
	C2.4,9.5,2,10.4,2.1,11.4z M15.8,17.4c0,0.9,0.2,1.8,0.7,2.6c0.4,0.8,1.1,1.4,1.8,1.8c0.7,0.4,1.6,0.6,2.4,0.6
	c0.8,0,1.5-0.2,2.2-0.5c0.8-0.4,1.4-0.9,1.9-1.6c0.6-0.7,0.9-1.6,1-2.5c-1.2-0.2-2.3-0.8-3.3-1.6c-1,0.8-2.2,1.2-3.4,1.2L15.8,17.4
	L15.8,17.4z"/>
</svg>
