<?xml version="1.0" encoding="utf-8"?>
<!-- Generator: Adobe Illustrator 21.0.0, SVG Export Plug-In . SVG Version: 6.00 Build 0)  -->
<svg version="1.1" id="Layer_1" xmlns="http://www.w3.org/2000/svg" xmlns:xlink="http://www.w3.org/1999/xlink" x="0px" y="0px"
	 viewBox="0 0 28.6 26.4" style="enable-background:new 0 0 28.6 26.4;" xml:space="preserve">
<style type="text/css">
	.st0{fill:#FFFFFF;}
</style>
<path id="Icon_weather-day-sunny-overcast" class="st0" d="M0,14.7c0,0.3,0.1,0.6,0.3,0.8c0.2,0.2,0.5,0.3,0.9,0.3h2
	c0.3,0,0.6-0.1,0.8-0.3c0.2-0.2,0.4-0.5,0.3-0.8c0-0.3-0.1-0.6-0.3-0.9c-0.2-0.2-0.5-0.3-0.8-0.3h-2c-0.3,0-0.6,0.1-0.9,0.3
	C0.1,14,0,14.4,0,14.7z M2.1,22.1c0,1.1,0.4,2.2,1.3,3c0.8,0.8,1.9,1.3,3,1.3h8.2c1.1,0,2.2-0.4,3-1.3c0.8-0.8,1.3-1.9,1.2-3
	c0-0.5-0.1-1-0.3-1.5c1-0.6,1.8-1.5,2.4-2.5c1.1-1.9,1.2-4.2,0.3-6.2c-0.7-1.7-2.1-3.1-3.8-3.8c-0.9-0.4-1.8-0.6-2.8-0.6
	c-1.3,0-2.5,0.3-3.6,1C10,9.1,9.1,10,8.4,11c-0.6,1.1-1,2.3-0.9,3.6v0.4c-1.2,0.6-2,1.7-2.4,3c-0.9,0.3-1.6,0.8-2.2,1.5
	C2.4,20.3,2.1,21.2,2.1,22.1z M4,5.1c0,0.3,0.1,0.6,0.3,0.8l1.9,2c0.5,0.4,1.2,0.4,1.7,0c0.2-0.2,0.3-0.5,0.3-0.8
	c0-0.3-0.1-0.6-0.3-0.8l-2-2C5.7,4.1,5.4,3.9,5.1,3.9C4.8,3.9,4.5,4,4.3,4.3C4.1,4.5,4,4.8,4,5.1z M4.5,22.1c0-0.5,0.2-0.9,0.5-1.3
	c0.3-0.4,0.8-0.6,1.2-0.6l0.7-0.1c0.2,0,0.2-0.1,0.2-0.3l0.1-0.7c0.1-0.7,0.4-1.3,0.9-1.7c0.5-0.5,1.1-0.7,1.8-0.7
	c0.7,0,1.3,0.2,1.8,0.7c0.5,0.4,0.8,1.1,0.9,1.7l0.1,0.8c0.1,0.2,0.2,0.3,0.3,0.3h1.6c0.5,0,1,0.2,1.3,0.6c0.4,0.3,0.6,0.8,0.6,1.3
	c0,0.5-0.2,1-0.6,1.4c-0.3,0.4-0.8,0.6-1.3,0.6H6.4c-0.5,0-1-0.2-1.4-0.6C4.7,23.1,4.5,22.6,4.5,22.1L4.5,22.1z M9.8,14.4
	c0.1-1.3,0.6-2.4,1.5-3.3c0.9-0.9,2.1-1.4,3.3-1.3c1.3,0,2.5,0.5,3.4,1.4c0.9,0.9,1.4,2.2,1.4,3.5c0,0.8-0.2,1.6-0.6,2.3
	c-0.4,0.7-1,1.3-1.7,1.7c-0.7-0.6-1.5-0.9-2.4-0.9c-0.3-1-1-1.9-1.9-2.5c-0.9-0.6-1.9-0.9-3-0.9L9.8,14.4L9.8,14.4z M13.5,3.9
	c0,0.3,0.1,0.6,0.3,0.8c0.5,0.5,1.2,0.5,1.7,0c0.2-0.2,0.3-0.5,0.3-0.8V1.1c0-0.3-0.1-0.6-0.3-0.8c-0.5-0.4-1.2-0.4-1.7,0
	c-0.2,0.2-0.4,0.5-0.3,0.8L13.5,3.9z M21.1,22.2c0,0.3,0.1,0.6,0.3,0.8l2,1.9c0.4,0.5,1.1,0.5,1.6,0.1c0,0,0.1-0.1,0.1-0.1
	c0.2-0.2,0.3-0.5,0.3-0.8c0-0.3-0.1-0.6-0.3-0.8l-2-2c-0.2-0.2-0.5-0.3-0.8-0.3c-0.3,0-0.6,0.1-0.8,0.3
	C21.2,21.6,21.1,21.9,21.1,22.2z M21.1,7.1c0,0.3,0.1,0.6,0.3,0.9c0.5,0.4,1.2,0.4,1.6,0l2-2c0.2-0.2,0.3-0.5,0.3-0.8
	c0-0.3-0.1-0.6-0.3-0.8c-0.2-0.2-0.5-0.3-0.8-0.3c-0.3,0-0.6,0.1-0.8,0.3l-2,2C21.2,6.5,21.1,6.8,21.1,7.1z M24.2,14.7
	c0,0.3,0.1,0.6,0.3,0.8c0.2,0.2,0.5,0.3,0.9,0.3h2c0.3,0,0.6-0.1,0.8-0.3c0.2-0.2,0.4-0.5,0.3-0.8c0-0.3-0.1-0.6-0.3-0.9
	c-0.2-0.2-0.5-0.3-0.8-0.3h-2c-0.3,0-0.6,0.1-0.9,0.3C24.3,14,24.2,14.4,24.2,14.7z"/>
</svg>
