<svg xmlns="http://www.w3.org/2000/svg" width="64.436" height="64.496" viewBox="0 0 64.436 64.496"><defs><style>.a{fill:#fff;}</style></defs><path class="a" d="M5.244,37.018A2.563,2.563,0,0,1,6,35.137a2.621,2.621,0,0,1,1.82-.728h6.189a2.3,2.3,0,0,1,1.76.758,2.85,2.85,0,0,1,.03,3.7,2.255,2.255,0,0,1-1.76.758H7.853a2.476,2.476,0,0,1-1.82-.758A2.523,2.523,0,0,1,5.244,37.018ZM13.92,58.041a2.81,2.81,0,0,1,.7-1.851l4.46-4.338a2.332,2.332,0,0,1,1.79-.7,2.57,2.57,0,0,1,1.82.7,2.268,2.268,0,0,1,.728,1.729,2.862,2.862,0,0,1-.728,1.942L18.38,59.831a2.754,2.754,0,0,1-3.731,0A2.449,2.449,0,0,1,13.92,58.041Zm0-41.986a2.81,2.81,0,0,1,.7-1.851,2.913,2.913,0,0,1,1.942-.758,2.55,2.55,0,0,1,1.79.728l4.338,4.46a2.355,2.355,0,0,1,.728,1.79,2.488,2.488,0,0,1-2.548,2.548,2.355,2.355,0,0,1-1.79-.728l-4.429-4.338A2.539,2.539,0,0,1,13.92,16.055Zm7.736,20.963A15.312,15.312,0,0,1,23.78,29.13a15.843,15.843,0,0,1,5.794-5.794,15.564,15.564,0,0,1,14.016-.849,15.849,15.849,0,0,1,5.036,3.4,15.919,15.919,0,0,1,4.611,11.164,15.341,15.341,0,0,1-2.124,7.918,15.91,15.91,0,0,1-5.764,5.764,15.823,15.823,0,0,1-15.836,0,15.91,15.91,0,0,1-5.764-5.764A16.118,16.118,0,0,1,21.656,37.018Zm5.157,0A10.72,10.72,0,0,0,37.492,47.757,10.772,10.772,0,0,0,48.231,37.018a10.227,10.227,0,0,0-3.155-7.493,10.394,10.394,0,0,0-7.584-3.094,10.258,10.258,0,0,0-7.524,3.094A10.111,10.111,0,0,0,26.814,37.018Zm8.07,23.6a2.383,2.383,0,0,1,.758-1.82,2.569,2.569,0,0,1,1.82-.728,2.539,2.539,0,0,1,1.851.728,2.47,2.47,0,0,1,.728,1.82v6.037a2.563,2.563,0,0,1-.758,1.881,2.476,2.476,0,0,1-1.82.758,2.429,2.429,0,0,1-1.82-.758,2.563,2.563,0,0,1-.758-1.881V60.62Zm0-47.022V7.409a2.476,2.476,0,0,1,.758-1.82A2.523,2.523,0,0,1,37.492,4.8a2.428,2.428,0,0,1,1.82.758,2.476,2.476,0,0,1,.758,1.82V13.6a2.3,2.3,0,0,1-.758,1.76,2.541,2.541,0,0,1-1.82.7,2.622,2.622,0,0,1-1.82-.7A2.387,2.387,0,0,1,34.883,13.6ZM51.629,53.582a2.382,2.382,0,0,1,2.4-2.4,2.57,2.57,0,0,1,1.82.7l4.429,4.338A2.64,2.64,0,0,1,61,58.072a2.449,2.449,0,0,1-.728,1.79,2.7,2.7,0,0,1-3.64,0l-4.308-4.308A2.954,2.954,0,0,1,51.629,53.582Zm0-33.128a2.352,2.352,0,0,1,.7-1.79l4.308-4.46a2.55,2.55,0,0,1,1.79-.728,2.383,2.383,0,0,1,1.82.758A2.476,2.476,0,0,1,61,16.055a2.561,2.561,0,0,1-.728,1.881l-4.429,4.338a2.676,2.676,0,0,1-1.82.728,2.2,2.2,0,0,1-1.7-.728A2.57,2.57,0,0,1,51.629,20.454Zm6.856,16.564a2.713,2.713,0,0,1,.728-1.881,2.362,2.362,0,0,1,1.729-.728h6.128a2.575,2.575,0,0,1,1.82,4.429,2.476,2.476,0,0,1-1.82.758H60.943a2.255,2.255,0,0,1-1.76-.758A2.622,2.622,0,0,1,58.485,37.018Z" transform="translate(-5.244 -4.8)"/></svg>