<?xml version="1.0" encoding="utf-8"?>
<!-- Generator: Adobe Illustrator 21.0.0, SVG Export Plug-In . SVG Version: 6.00 Build 0)  -->
<svg version="1.1" id="Layer_1" xmlns="http://www.w3.org/2000/svg" xmlns:xlink="http://www.w3.org/1999/xlink" x="0px" y="0px"
	 viewBox="0 0 32.2 31.7" style="enable-background:new 0 0 32.2 31.7;" xml:space="preserve">
<style type="text/css">
	.st0{fill:#FFFFFF;}
</style>
<path id="Icon_weather-day-snow" class="st0" d="M0,19.2c0,1,0.3,2,0.8,2.9C1.3,23,2,23.7,2.9,24.2c0.9,0.5,1.9,0.8,2.9,0.9
	c0.1,0,0.2-0.1,0.2-0.2c0,0,0,0,0,0v-1.6c0-0.1-0.1-0.2-0.2-0.2c-1,0-1.9-0.5-2.6-1.2C2.4,21.1,2,20.2,2,19.2c0-1,0.4-1.9,1-2.6
	c0.7-0.7,1.6-1.2,2.5-1.3l0.6-0.1c0.1,0,0.2-0.1,0.2-0.2l0.1-0.6c0.1-1.3,0.7-2.4,1.6-3.3c0.9-0.9,2.2-1.3,3.4-1.3
	c1.3,0,2.5,0.5,3.4,1.3c1,0.8,1.6,2,1.7,3.2l0.1,0.7c0,0.1,0.1,0.2,0.2,0.2c0,0,0,0,0,0h1.9c2.1,0,3.9,1.8,3.9,3.9
	c0,2-1.6,3.7-3.6,3.9c-0.1,0-0.2,0.1-0.2,0.2c0,0,0,0,0,0.1v1.6c0,0.1,0.1,0.2,0.2,0.2c3.2-0.1,5.7-2.7,5.7-5.9
	c0-0.8-0.2-1.7-0.5-2.4c1.6-2,1.8-4.8,0.5-7.1c-0.6-0.9-1.3-1.7-2.3-2.3c-1-0.6-2-0.8-3.1-0.8c-1.8,0-3.5,0.7-4.6,2.1
	c-1-0.5-2.1-0.8-3.2-0.8c-3.4,0-6.3,2.3-7,5.6c-1.3,0.3-2.5,1-3.3,2.1C0.4,16.5,0,17.8,0,19.2z M7.6,24c0,0.3,0.1,0.5,0.3,0.7
	c0.2,0.2,0.4,0.3,0.7,0.3c0.3,0,0.5-0.1,0.7-0.3c0.2-0.2,0.3-0.5,0.3-0.7c0-0.5-0.4-1-1-1c0,0,0,0,0,0C8.1,23.1,7.6,23.5,7.6,24
	C7.6,24,7.6,24,7.6,24L7.6,24z M7.6,28.4c0,0.3,0.1,0.5,0.3,0.7c0.2,0.2,0.4,0.3,0.7,0.3c0.3,0,0.5-0.1,0.7-0.3
	c0.2-0.2,0.3-0.4,0.3-0.7c0-0.3-0.1-0.5-0.3-0.7c-0.2-0.2-0.4-0.3-0.7-0.3c-0.5,0-0.9,0.4-1,0.9C7.6,28.3,7.6,28.4,7.6,28.4
	L7.6,28.4z M10.1,4.5c0,0.3,0.1,0.5,0.3,0.7L11.1,6c0.2,0.2,0.4,0.3,0.6,0.3c0.3,0,0.5-0.1,0.7-0.3c0.2-0.2,0.4-0.5,0.4-0.8
	c0-0.3-0.1-0.6-0.3-0.8l-0.8-0.7c-0.2-0.2-0.4-0.3-0.7-0.3c-0.3,0-0.6,0.1-0.8,0.3C10.2,4,10.1,4.2,10.1,4.5L10.1,4.5z M11.4,26.4
	c0,0.3,0.1,0.5,0.3,0.7c0.2,0.2,0.4,0.3,0.7,0.3c0.3,0,0.5-0.1,0.7-0.3c0.4-0.4,0.4-1,0-1.4c-0.2-0.2-0.4-0.3-0.7-0.3
	c-0.3,0-0.5,0.1-0.7,0.3C11.5,25.8,11.4,26.1,11.4,26.4z M11.4,22c0,0.3,0.1,0.5,0.3,0.7c0.2,0.2,0.4,0.3,0.7,0.3
	c0.3,0,0.5-0.1,0.7-0.3c0.2-0.2,0.3-0.4,0.3-0.7c0-0.3-0.1-0.5-0.3-0.7c-0.2-0.2-0.5-0.3-0.7-0.3c-0.3,0-0.5,0.1-0.7,0.3
	C11.5,21.5,11.4,21.8,11.4,22z M11.4,30.7c0,0.3,0.1,0.5,0.3,0.7c0.2,0.2,0.4,0.3,0.7,0.3c0.3,0,0.5-0.1,0.7-0.3
	c0.2-0.2,0.3-0.4,0.3-0.7c0-0.3-0.1-0.5-0.3-0.7c-0.2-0.2-0.4-0.3-0.7-0.3c-0.3,0-0.5,0.1-0.7,0.3C11.5,30.2,11.4,30.5,11.4,30.7z
	 M15.3,24c0,0.3,0.1,0.5,0.3,0.7c0.4,0.4,1,0.4,1.4,0c0,0,0,0,0,0c0.2-0.2,0.3-0.5,0.3-0.7c0-0.6-0.5-1-1-1c-0.3,0-0.5,0.1-0.7,0.3
	C15.4,23.5,15.3,23.8,15.3,24L15.3,24z M15.3,28.4c0,0.3,0.1,0.5,0.3,0.7c0.2,0.2,0.5,0.3,0.7,0.3c0.3,0,0.5-0.1,0.7-0.3
	c0.2-0.2,0.3-0.4,0.3-0.7c0-0.3-0.1-0.5-0.3-0.7c-0.2-0.2-0.4-0.3-0.7-0.3c-0.3,0-0.5,0.1-0.7,0.3C15.4,27.9,15.3,28.1,15.3,28.4
	L15.3,28.4z M16.5,9.7c0.8-0.8,1.9-1.2,3-1.2c1.1,0,2.2,0.4,3,1.3c0.8,0.8,1.3,1.9,1.2,3c0,0.8-0.2,1.5-0.6,2.2
	c-1.1-1.1-2.6-1.8-4.2-1.7h-0.4C18.2,11.9,17.5,10.7,16.5,9.7L16.5,9.7z M18.4,3.5c0,0.3,0.1,0.5,0.3,0.7c0.2,0.2,0.5,0.3,0.7,0.3
	c0.3,0,0.5-0.1,0.7-0.3c0.2-0.2,0.3-0.4,0.3-0.7V1c0-0.3-0.1-0.5-0.3-0.7C19.9,0.1,19.7,0,19.4,0c-0.3,0-0.5,0.1-0.7,0.3
	c-0.2,0.2-0.3,0.4-0.3,0.7L18.4,3.5L18.4,3.5z M25,6.2c0,0.3,0.1,0.5,0.3,0.7c0.2,0.2,0.4,0.3,0.7,0.3c0.3,0,0.6-0.1,0.7-0.3
	l1.7-1.7c0.4-0.4,0.4-1,0-1.4c0,0,0,0,0,0c-0.2-0.2-0.4-0.3-0.7-0.3c-0.3,0-0.5,0.1-0.7,0.3l-1.7,1.8C25.1,5.7,25,5.9,25,6.2z
	 M26,20.4c0,0.3,0.1,0.5,0.3,0.7l0.8,0.8c0.2,0.2,0.5,0.3,0.8,0.3c0.3,0,0.5-0.1,0.7-0.3c0.2-0.2,0.3-0.5,0.3-0.7
	c0-0.3-0.1-0.5-0.3-0.7l-0.7-0.8c-0.2-0.2-0.5-0.3-0.7-0.3C26.4,19.3,26,19.8,26,20.4L26,20.4z M27.7,12.8c0,0.3,0.1,0.5,0.3,0.7
	c0.2,0.2,0.5,0.3,0.7,0.3h2.4c0.6,0,1-0.5,1-1c0,0,0,0,0,0c0-0.3-0.1-0.5-0.3-0.7c-0.2-0.2-0.4-0.3-0.7-0.3h-2.4
	c-0.3,0-0.5,0.1-0.7,0.3C27.8,12.3,27.7,12.5,27.7,12.8z"/>
</svg>
