<?xml version="1.0" encoding="utf-8"?>
<!-- Generator: Adobe Illustrator 21.0.0, SVG Export Plug-In . SVG Version: 6.00 Build 0)  -->
<svg version="1.1" id="Layer_1" xmlns="http://www.w3.org/2000/svg" xmlns:xlink="http://www.w3.org/1999/xlink" x="0px" y="0px"
	 viewBox="0 0 32.4 32.2" style="enable-background:new 0 0 32.4 32.2;" xml:space="preserve">
<style type="text/css">
	.st0{fill:#FFFFFF;}
</style>
<path id="Icon_weather-day-rain" class="st0" d="M0,19.2c0,1.5,0.6,3,1.7,4.1c1.1,1.1,2.5,1.8,4.1,1.8C5.9,25.2,6,25.1,6,25
	c0,0,0,0,0,0v-1.6c0-0.1-0.1-0.2-0.2-0.2c0,0,0,0,0,0c-1,0-2-0.5-2.6-1.2c-0.7-0.7-1.1-1.7-1.1-2.7c0-1,0.4-1.9,1-2.6
	c0.7-0.7,1.5-1.2,2.5-1.3l0.6-0.1c0.2,0,0.2-0.1,0.2-0.2l0.1-0.6c0.3-2.6,2.5-4.6,5.1-4.6c2.6,0,4.8,2,5.1,4.6l0.1,0.7
	c0,0.1,0.1,0.2,0.2,0.2H19c1,0,2,0.4,2.8,1.2c0.8,0.7,1.2,1.7,1.2,2.7c0,1-0.4,2-1.1,2.7c-0.7,0.7-1.6,1.2-2.6,1.2
	c-0.1,0-0.2,0.1-0.2,0.2V25c0,0.1,0.1,0.2,0.2,0.2c3.2-0.1,5.7-2.7,5.7-6c0-0.8-0.2-1.7-0.5-2.4c1.6-2,1.9-4.9,0.6-7.1
	c-0.5-1-1.3-1.8-2.3-2.3c-1-0.6-2-0.8-3.1-0.8c-1.8,0-3.5,0.7-4.7,2.1c-1-0.5-2.1-0.8-3.3-0.8c-3.4,0-6.3,2.3-7,5.6
	c-1.3,0.3-2.5,1-3.3,2.1C0.4,16.6,0,17.9,0,19.2z M6.5,27.5c0,0.2,0.1,0.4,0.2,0.6c0.1,0.2,0.3,0.3,0.6,0.4c0.1,0,0.2,0,0.3,0
	c0.5,0,0.9-0.3,0.9-0.8l1.9-7.1c0.1-0.3,0-0.6-0.1-0.8c-0.1-0.2-0.4-0.4-0.6-0.5c-0.3-0.1-0.5-0.1-0.8,0.1c-0.2,0.1-0.4,0.3-0.5,0.6
	l-1.9,7.1C6.5,27.4,6.5,27.4,6.5,27.5z M9.6,31.2c0,0.2,0.1,0.4,0.2,0.6c0.1,0.2,0.4,0.3,0.6,0.4c0.1,0,0.2,0,0.3,0
	c0.2,0,0.4-0.1,0.5-0.2c0.2-0.1,0.3-0.4,0.3-0.6l2.9-10.7c0.1-0.3,0-0.5-0.1-0.8c-0.1-0.2-0.3-0.4-0.6-0.5c-0.3-0.1-0.5-0.1-0.8,0.1
	c-0.2,0.1-0.4,0.3-0.5,0.6L9.6,30.9C9.6,31,9.6,31.2,9.6,31.2z M10.1,4.5c0,0.3,0.1,0.5,0.3,0.7L11.2,6c0.2,0.2,0.5,0.3,0.7,0.3
	c0.3,0,0.5-0.1,0.7-0.3c0.2-0.2,0.3-0.4,0.3-0.7c0-0.3-0.1-0.6-0.3-0.8l-0.8-0.8c-0.4-0.4-1.1-0.4-1.5,0C10.2,4,10.1,4.2,10.1,4.5
	L10.1,4.5z M14.6,27.5c0,0.2,0.1,0.4,0.2,0.6c0.1,0.2,0.3,0.3,0.6,0.4c0.1,0,0.2,0,0.3,0c0.2,0,0.4-0.1,0.6-0.2
	c0.2-0.1,0.3-0.4,0.4-0.6l1.9-7.1c0.2-0.5-0.1-1.1-0.7-1.2c0,0,0,0,0,0c-0.5-0.2-1.1,0.1-1.2,0.6c0,0,0,0,0,0.1l-1.9,7.1
	C14.6,27.4,14.6,27.5,14.6,27.5z M16.5,9.8c0.8-0.8,1.9-1.2,3-1.2c1.1,0,2.2,0.4,3,1.2c0.8,0.8,1.3,1.9,1.2,3c0,0.8-0.2,1.5-0.6,2.2
	c-1.1-1.1-2.6-1.8-4.2-1.7h-0.4C18.3,12,17.6,10.8,16.5,9.8z M18.5,3.5c0,0.3,0.1,0.5,0.3,0.7c0.2,0.2,0.5,0.3,0.7,0.3
	c0.3,0,0.5-0.1,0.7-0.3c0.2-0.2,0.3-0.4,0.3-0.7V1c0-0.3-0.1-0.5-0.3-0.8C20.1,0.1,19.8,0,19.5,0c-0.3,0-0.6,0.1-0.7,0.3
	c-0.2,0.2-0.3,0.5-0.3,0.7L18.5,3.5L18.5,3.5z M25.1,6.2c0,0.3,0.1,0.5,0.3,0.7c0.2,0.2,0.4,0.3,0.7,0.3c0.3,0,0.6-0.1,0.7-0.3
	l1.7-1.7c0.2-0.2,0.3-0.5,0.3-0.8c0-0.3-0.1-0.5-0.3-0.7c-0.2-0.2-0.5-0.3-0.7-0.3c-0.3,0-0.5,0.1-0.7,0.3l-1.7,1.7
	C25.2,5.7,25.1,6,25.1,6.2z M26.1,20.5c0,0.3,0.1,0.5,0.3,0.8l0.8,0.8c0.2,0.2,0.5,0.3,0.7,0.3l0,0c0.3,0,0.5-0.1,0.7-0.3
	c0.2-0.2,0.3-0.5,0.3-0.7c0-0.3-0.1-0.5-0.3-0.7l-0.7-0.8c-0.2-0.2-0.5-0.3-0.7-0.3c-0.3,0-0.5,0.1-0.7,0.3
	C26.2,19.9,26.1,20.2,26.1,20.5z M27.9,12.9c0,0.3,0.1,0.5,0.3,0.7c0.2,0.2,0.5,0.3,0.7,0.3h2.4c0.6,0,1-0.5,1-1
	c0-0.3-0.1-0.5-0.3-0.7c-0.2-0.2-0.5-0.3-0.7-0.3h-2.4c-0.3,0-0.5,0.1-0.7,0.3C28,12.3,27.8,12.6,27.9,12.9L27.9,12.9z"/>
</svg>
