<?xml version="1.0" encoding="utf-8"?>
<!-- Generator: Adobe Illustrator 21.0.0, SVG Export Plug-In . SVG Version: 6.00 Build 0)  -->
<svg version="1.1" id="Layer_1" xmlns="http://www.w3.org/2000/svg" xmlns:xlink="http://www.w3.org/1999/xlink" x="0px" y="0px"
	 viewBox="0 0 26.2 26.8" style="enable-background:new 0 0 26.2 26.8;" xml:space="preserve">
<style type="text/css">
	.st0{fill:#FFFFFF;}
</style>
<path id="Icon_weather-night-alt-rain" class="st0" d="M0,13.9c0,1.5,0.6,3,1.7,4.1c1.1,1.1,2.5,1.8,4.1,1.8c0.1,0,0.2-0.1,0.2-0.2
	v-1.6c0-0.1-0.1-0.2-0.2-0.2c-1,0-2-0.5-2.6-1.2c-0.7-0.7-1.1-1.7-1.1-2.7c0-1,0.4-1.9,1-2.6c0.7-0.7,1.6-1.2,2.5-1.3l0.6,0
	c0.2,0,0.2-0.1,0.2-0.2l0.1-0.6C6.8,6.5,9,4.6,11.6,4.6c2.6,0,4.8,2,5.1,4.6l0.1,0.7c0,0.1,0.1,0.2,0.2,0.2H19c1,0,2.1,0.4,2.8,1.2
	c0.8,0.7,1.2,1.7,1.2,2.7c0,1-0.4,2-1.1,2.7c-0.7,0.7-1.6,1.2-2.6,1.2c-0.2,0-0.3,0.1-0.3,0.2v1.6c0,0.1,0.1,0.2,0.3,0.2
	c1.5,0,3-0.7,4.1-1.8c1.1-1.1,1.7-2.6,1.7-4.1c0-1-0.3-2.1-0.8-3c0.9-0.8,1.6-1.9,1.9-3.1L26.2,7c0,0,0-0.1,0-0.1
	c0-0.1-0.1-0.2-0.2-0.2l-0.7-0.2c-0.7-0.2-1.3-0.5-1.8-1c-0.9-0.8-1.3-1.9-1.4-3c0-0.3,0-0.7,0.1-1l0.2-0.7c0-0.1,0-0.2-0.2-0.3
	l-1-0.3c-0.5-0.1-1-0.2-1.5-0.2c-0.5,0-0.9,0.1-1.4,0.2c-0.5,0.1-1,0.3-1.4,0.5c-0.5,0.2-1,0.6-1.4,1c-0.5,0.4-0.9,0.9-1.2,1.5
	c-0.9-0.3-1.8-0.5-2.8-0.5c-1.6,0-3.2,0.5-4.5,1.6c-1.3,1-2.2,2.4-2.5,4c-1.3,0.3-2.5,1-3.3,2.1C0.4,11.3,0,12.6,0,13.9z M6.7,22.1
	c0,0.2,0.1,0.4,0.2,0.6c0.1,0.2,0.3,0.3,0.6,0.4c0.3,0.1,0.5,0.1,0.8,0c0.3-0.1,0.4-0.4,0.5-0.7l1.7-7c0.1-0.3,0-0.6-0.1-0.8
	c-0.1-0.2-0.4-0.4-0.6-0.4C9.4,14,9.2,14,8.9,14.2c-0.2,0.1-0.4,0.3-0.5,0.6l-1.7,7.1c0,0,0,0,0,0.1C6.7,22,6.7,22.1,6.7,22.1z
	 M9.8,25.8c0,0.2,0.1,0.4,0.2,0.6c0.1,0.2,0.3,0.3,0.5,0.4c0.1,0,0.2,0,0.3,0c0.5,0,0.9-0.3,1-0.7l2.7-10.7c0.2-0.5-0.1-1.1-0.7-1.2
	c0,0,0,0,0,0c-0.3-0.1-0.6-0.1-0.8,0.1c-0.2,0.1-0.4,0.3-0.5,0.6L9.8,25.5c0,0,0,0.1,0,0.1C9.8,25.7,9.8,25.8,9.8,25.8z M14.8,22.2
	c0,0.4,0.3,0.7,0.8,0.9c0.1,0,0.2,0.1,0.4,0.1c0.1,0,0.3,0,0.4-0.1c0.3-0.1,0.5-0.4,0.5-0.7l1.7-7c0.1-0.3,0-0.5-0.1-0.8
	c-0.1-0.2-0.4-0.4-0.6-0.5c-0.3-0.1-0.6-0.1-0.8,0.1c-0.2,0.1-0.4,0.3-0.5,0.6l-1.7,7.1C14.8,22.1,14.8,22.2,14.8,22.2z M16.2,4.2
	c0.4-0.7,0.9-1.2,1.6-1.6C18.4,2.2,19.2,2,19.9,2c0.1,0,0.2,0,0.3,0v0.4c0,2.4,1.4,4.6,3.6,5.7c-0.2,0.5-0.5,0.9-0.9,1.3
	C21.8,8.5,20.4,8,19,8h-0.4C18.3,6.5,17.4,5.1,16.2,4.2z"/>
</svg>
