<?xml version="1.0" encoding="utf-8"?>
<!-- Generator: Adobe Illustrator 21.0.0, SVG Export Plug-In . SVG Version: 6.00 Build 0)  -->
<svg version="1.1" id="Layer_1" xmlns="http://www.w3.org/2000/svg" xmlns:xlink="http://www.w3.org/1999/xlink" x="0px" y="0px"
	 viewBox="0 0 31.1 20.4" style="enable-background:new 0 0 31.1 20.4;" xml:space="preserve">
<style type="text/css">
	.st0{fill:#FFFFFF;}
</style>
<path id="Icon_weather-cloudy" class="st0" d="M0,14.4c0-1.4,0.4-2.7,1.3-3.7c0.8-1.1,2-1.8,3.3-2.1C5.4,5.3,8.3,3,11.7,3
	c1.6,0,3.2,0.5,4.4,1.5c1.3,1,2.2,2.4,2.5,3.9H19c3.3,0,6,2.7,6,5.9c0,3.3-2.7,6-6,6H6c-0.8,0-1.6-0.2-2.3-0.5
	c-0.7-0.3-1.4-0.7-1.9-1.2c-0.5-0.6-1-1.2-1.3-1.9C0.2,16,0,15.2,0,14.4z M2,14.4c0,1,0.4,2,1.2,2.7c0.7,0.8,1.7,1.2,2.8,1.1h13
	c1,0,2.1-0.4,2.8-1.1c0.8-0.7,1.2-1.7,1.2-2.7c0-1-0.4-2-1.2-2.7C21,10.9,20,10.5,19,10.5H17c-0.1,0-0.2-0.1-0.2-0.2c0,0,0,0,0-0.1
	l-0.1-0.7C16.5,7,14.3,5,11.6,5c-1.3,0-2.5,0.5-3.4,1.3c-1,0.8-1.6,2-1.7,3.3l-0.1,0.6c0,0.1-0.1,0.2-0.2,0.2l-0.6,0.1
	c-1,0.1-1.9,0.5-2.5,1.2C2.4,12.5,2,13.5,2,14.4L2,14.4z M14.4,2.2c-0.1,0.1-0.1,0.2,0.1,0.3c0.5,0.2,1,0.5,1.5,0.8
	c0.2,0,0.3,0,0.3,0c1.7-1.7,4.5-1.6,6.1,0.1C23.2,4.1,23.6,5,23.7,6l0.1,0.9h2c0.9,0,1.7,0.3,2.4,1c1.3,1.2,1.3,3.2,0.1,4.5
	c-0.6,0.6-1.3,1-2.1,1.1c-0.1,0-0.2,0.1-0.2,0.2v1.6c0,0.2,0.1,0.2,0.2,0.2c2.8-0.2,5-2.5,5-5.3c0-3-2.4-5.4-5.4-5.4h-0.2
	c-0.4-1.4-1.2-2.6-2.3-3.5C20.6-0.7,16.7-0.4,14.4,2.2L14.4,2.2z"/>
</svg>
