<?xml version="1.0" encoding="utf-8"?>
<!-- Generator: Adobe Illustrator 21.0.0, SVG Export Plug-In . SVG Version: 6.00 Build 0)  -->
<svg version="1.1" id="Layer_1" xmlns="http://www.w3.org/2000/svg" xmlns:xlink="http://www.w3.org/1999/xlink" x="0px" y="0px"
	 viewBox="0 0 26.2 26.5" style="enable-background:new 0 0 26.2 26.5;" xml:space="preserve">
<style type="text/css">
	.st0{fill:#FFFFFF;}
</style>
<path id="Icon_weather-night-alt-snow" class="st0" d="M0,13.9c0,1.5,0.6,3,1.7,4.1c1.1,1.1,2.5,1.8,4.1,1.8c0.1,0,0.2-0.1,0.2-0.2
	V18c0-0.1-0.1-0.2-0.2-0.2c-1,0-1.9-0.5-2.6-1.2c-1.4-1.5-1.5-3.8-0.1-5.3c0.6-0.7,1.6-1.2,2.5-1.2L6.2,10c0.2,0,0.2-0.1,0.2-0.2
	l0.1-0.6c0.1-1.3,0.7-2.4,1.6-3.3c0.9-0.9,2.2-1.3,3.4-1.3c2.6,0,4.8,2,5.1,4.6l0.1,0.7c0,0.1,0.1,0.2,0.2,0.2H19
	c1.1,0,2.1,0.4,2.8,1.2c1.5,1.5,1.6,3.9,0.1,5.5c-0.7,0.7-1.6,1.2-2.6,1.2c-0.2,0-0.3,0.1-0.3,0.2v1.6c0,0.1,0.1,0.2,0.3,0.2
	c1,0,2-0.3,2.9-0.9c2.7-1.7,3.6-5.3,2.1-8.1c0.9-0.8,1.5-1.9,1.8-3.1L26.2,7c0,0,0-0.1,0-0.1c0-0.1-0.1-0.2-0.2-0.2l-0.7-0.2
	c-0.5-0.1-1-0.4-1.4-0.7c-0.4-0.3-0.7-0.6-1-1c-0.2-0.4-0.4-0.7-0.5-1.1c-0.1-0.4-0.2-0.8-0.2-1.1c0-0.3,0-0.7,0.1-1l0.1-0.7
	c0-0.1,0-0.2-0.2-0.3l-1-0.3c-0.5-0.1-1-0.2-1.5-0.2c-0.5,0-0.9,0.1-1.3,0.2c-0.5,0.1-1,0.3-1.4,0.5c-0.5,0.2-1,0.6-1.4,1
	c-0.5,0.4-0.9,0.9-1.2,1.5c-0.9-0.4-1.9-0.6-2.9-0.6C10,2.5,8.4,3,7.1,4.1c-1.3,1-2.2,2.4-2.5,4c-1.3,0.3-2.5,1.1-3.3,2.1
	C0.4,11.3,0,12.6,0,13.9z M7.7,18.8c0,0.3,0.1,0.5,0.3,0.7c0.2,0.2,0.4,0.3,0.7,0.3c0.3,0,0.5-0.1,0.7-0.3c0.2-0.2,0.3-0.5,0.3-0.7
	c0-0.3-0.1-0.5-0.3-0.7c-0.4-0.4-1-0.4-1.4,0C7.8,18.3,7.7,18.6,7.7,18.8z M7.7,23.2c0,0.3,0.1,0.5,0.3,0.7c0.2,0.2,0.4,0.3,0.7,0.3
	c0.3,0,0.5-0.1,0.7-0.3c0.4-0.4,0.4-1,0-1.4c-0.2-0.2-0.5-0.3-0.7-0.3c-0.3,0-0.5,0.1-0.7,0.3C7.8,22.7,7.7,22.9,7.7,23.2z
	 M11.5,21.2c0,0.3,0.1,0.5,0.3,0.7c0.2,0.2,0.4,0.3,0.7,0.3c0.3,0,0.5-0.1,0.7-0.3c0.2-0.2,0.3-0.4,0.3-0.7c0-0.3-0.1-0.5-0.3-0.7
	c-0.2-0.2-0.5-0.3-0.7-0.3c-0.3,0-0.5,0.1-0.7,0.3C11.6,20.6,11.5,20.9,11.5,21.2z M11.5,16.8c0,0.3,0.1,0.5,0.3,0.7
	c0.2,0.2,0.4,0.3,0.7,0.3c0.3,0,0.5-0.1,0.7-0.3c0.2-0.2,0.3-0.4,0.3-0.7c0-0.6-0.5-1-1-1c0,0,0,0,0,0c-0.3,0-0.5,0.1-0.7,0.3
	C11.6,16.3,11.5,16.5,11.5,16.8z M11.5,25.6c0,0.3,0.1,0.5,0.3,0.7c0.2,0.2,0.4,0.3,0.7,0.3c0.3,0,0.5-0.1,0.7-0.3
	c0.2-0.2,0.3-0.4,0.3-0.7c0-0.3-0.1-0.5-0.3-0.7c-0.2-0.2-0.5-0.3-0.7-0.3c-0.3,0-0.5,0.1-0.7,0.3C11.6,25,11.5,25.3,11.5,25.6z
	 M15.4,18.8c0,0.3,0.1,0.5,0.3,0.7c0.2,0.2,0.4,0.3,0.7,0.3c0.3,0,0.5-0.1,0.7-0.3c0.2-0.2,0.3-0.5,0.3-0.7c0-0.3-0.1-0.5-0.3-0.7
	c-0.2-0.2-0.4-0.3-0.7-0.3c-0.3,0-0.5,0.1-0.7,0.3C15.5,18.3,15.4,18.6,15.4,18.8z M15.4,23.2c0,0.3,0.1,0.5,0.3,0.7
	c0.2,0.2,0.5,0.3,0.7,0.3c0.3,0,0.5-0.1,0.7-0.3c0.2-0.2,0.3-0.4,0.3-0.7c0-0.3-0.1-0.5-0.3-0.7c-0.2-0.2-0.4-0.3-0.7-0.3
	c-0.3,0-0.5,0.1-0.7,0.3C15.5,22.7,15.4,22.9,15.4,23.2z M16.2,4.1c0.4-0.6,0.9-1.2,1.6-1.5c0.6-0.3,1.3-0.5,2.1-0.6
	c0.1,0,0.3,0,0.4,0v0.4c0,1.2,0.3,2.3,0.9,3.3c0.6,1,1.5,1.8,2.6,2.4c-0.2,0.5-0.5,0.9-0.9,1.3C21.8,8.4,20.4,7.9,19,8h-0.4
	C18.3,6.5,17.4,5.1,16.2,4.1z"/>
</svg>
