<?xml version="1.0" encoding="utf-8"?>
<!-- Generator: Adobe Illustrator 21.0.0, SVG Export Plug-In . SVG Version: 6.00 Build 0)  -->
<svg version="1.1" id="Layer_1" xmlns="http://www.w3.org/2000/svg" xmlns:xlink="http://www.w3.org/1999/xlink" x="0px" y="0px"
	 viewBox="0 0 26.2 26.8" style="enable-background:new 0 0 26.2 26.8;" xml:space="preserve">
<style type="text/css">
	.st0{fill:#FFFFFF;}
</style>
<path id="Icon_weather-night-alt-showers" class="st0" d="M0,13.9c0,1.5,0.6,3,1.7,4.1c1.1,1.1,2.5,1.8,4.1,1.8
	c0.1,0,0.2-0.1,0.2-0.2c0,0,0,0,0,0V18c0-0.1-0.1-0.2-0.2-0.2c-1-0.1-1.9-0.5-2.6-1.3c-1.4-1.5-1.4-3.8-0.1-5.2
	c0.6-0.7,1.5-1.2,2.5-1.3l0.6-0.1c0.2,0,0.2-0.1,0.2-0.2l0.1-0.6c0.1-1.3,0.7-2.4,1.6-3.3c1.9-1.7,4.9-1.7,6.8,0
	c1,0.8,1.6,2,1.7,3.3l0.1,0.7c0,0.1,0.1,0.2,0.2,0.2c0,0,0,0,0.1,0h1.9c1,0,2,0.4,2.8,1.1c1.5,1.5,1.6,3.9,0.1,5.4
	c-0.7,0.7-1.6,1.2-2.6,1.2C19,17.8,19,17.8,19,18v1.6c0,0.1,0.1,0.2,0.2,0.2c1.5,0,3-0.7,4.1-1.8c1.8-1.9,2.2-4.8,0.9-7.1
	c0.9-0.8,1.6-1.9,1.9-3.1V7.7l0.2-0.9l-0.9-0.3c-0.9-0.3-1.7-0.8-2.3-1.6c-0.5-0.7-0.8-1.6-0.8-2.4c0-0.3,0-0.6,0.1-0.9l0.2-1
	l-1-0.3l-0.2,0c-0.5-0.1-1-0.2-1.5-0.2c-0.5,0-0.9,0.1-1.4,0.2c-0.5,0.1-1,0.3-1.4,0.5c-0.5,0.2-1,0.6-1.4,1
	c-0.5,0.4-0.9,0.9-1.2,1.5c-0.9-0.4-1.9-0.6-2.8-0.6C10,2.5,8.4,3,7.1,4.1c-1.3,1-2.2,2.4-2.5,4c-1.3,0.3-2.5,1-3.3,2.1
	C0.5,11.2,0,12.5,0,13.9z M6.5,22c0,0.2,0.1,0.4,0.2,0.5c0.1,0.2,0.3,0.3,0.5,0.4C7.5,23,7.7,23,8,22.9c0.2-0.1,0.4-0.3,0.5-0.6
	L8.8,21c0.1-0.2,0.1-0.5-0.1-0.7c-0.3-0.5-0.9-0.7-1.4-0.4c0,0,0,0,0,0c-0.2,0.1-0.4,0.4-0.5,0.6l-0.3,1.2C6.5,21.9,6.5,22,6.5,22z
	 M8,16.3c0,0.4,0.3,0.8,0.8,0.9c0.3,0.1,0.5,0,0.8-0.1c0.2-0.1,0.4-0.4,0.5-0.6l0.3-1.2c0.1-0.3,0.1-0.5-0.1-0.8
	c-0.1-0.2-0.4-0.4-0.6-0.5c-0.3-0.1-0.6,0-0.8,0.1c-0.2,0.1-0.4,0.4-0.5,0.6L8.1,16C8.1,16.1,8,16.2,8,16.3z M9.5,25.7
	c0,0.2,0.1,0.4,0.2,0.6c0.1,0.2,0.3,0.3,0.5,0.4c0.1,0,0.2,0.1,0.3,0.1c0.2,0,0.3-0.1,0.5-0.1c0.3-0.1,0.5-0.4,0.5-0.7l0.4-1.3
	c0.1-0.3,0.1-0.5-0.1-0.8c-0.3-0.5-0.9-0.7-1.4-0.4c0,0,0,0,0,0c-0.2,0.1-0.4,0.4-0.5,0.6l-0.3,1.2C9.6,25.5,9.5,25.6,9.5,25.7z
	 M11.1,20c0,0.2,0.1,0.4,0.2,0.5c0.1,0.2,0.3,0.3,0.6,0.4c0.3,0.1,0.5,0.1,0.8-0.1c0.2-0.1,0.4-0.4,0.5-0.6l0.3-1.2
	c0.1-0.2,0.1-0.5-0.1-0.7c-0.1-0.2-0.3-0.4-0.6-0.5c-0.3-0.1-0.6,0-0.8,0.1c-0.2,0.1-0.4,0.4-0.5,0.6l-0.3,1.2L11.1,20z M14.5,22.1
	c0,0.4,0.3,0.8,0.8,0.9c0.1,0,0.2,0,0.3,0c0.2,0,0.3,0,0.4-0.1c0.3-0.1,0.5-0.4,0.5-0.7l0.3-1.2c0.1-0.3,0-0.6-0.1-0.8
	c-0.1-0.2-0.4-0.4-0.6-0.4c-0.3-0.1-0.5-0.1-0.8,0.1c-0.2,0.1-0.4,0.4-0.5,0.6l-0.3,1.2c0,0,0,0.1,0,0.2
	C14.5,22,14.5,22.1,14.5,22.1L14.5,22.1z M16.2,16.4c0,0.2,0.1,0.4,0.2,0.6c0.1,0.2,0.3,0.3,0.6,0.4c0.2,0,0.3,0.1,0.3,0.1
	c0.2,0,0.3-0.1,0.5-0.1c0.3-0.1,0.5-0.4,0.5-0.7l0.3-1.2c0.1-0.3,0-0.5-0.1-0.8c-0.1-0.2-0.4-0.4-0.6-0.5C17.5,14,17.2,14,17,14.2
	c-0.2,0.1-0.4,0.4-0.5,0.6l-0.3,1.3C16.2,16.2,16.2,16.3,16.2,16.4L16.2,16.4z M16.2,4.2c0.4-0.7,0.9-1.2,1.6-1.6
	C18.5,2.2,19.2,2,20,2h0.3c0,0.1,0,0.3,0,0.5c0,1.1,0.3,2.3,0.9,3.3c0.6,1,1.5,1.8,2.6,2.4c-0.2,0.5-0.6,0.9-0.9,1.3
	c-1.1-1-2.5-1.5-3.9-1.5h-0.4C18.2,6.5,17.4,5.1,16.2,4.2L16.2,4.2z"/>
</svg>
