<svg xmlns="http://www.w3.org/2000/svg" width="116.033" height="114.13" viewBox="0 0 116.033 114.13"><defs><style>.a{fill:#fff;}</style></defs><path class="a" d="M1.824,69.745A20.55,20.55,0,0,0,6.043,82.431,21.013,21.013,0,0,0,17.108,90.06l-2.756,7.286c-.172.6,0,.9.6.9h9.171l-5.382,16.929h1.249l17.954-23.1a.454.454,0,0,0,.043-.6c-.086-.214-.3-.3-.6-.3H28.044L38.679,71.331c.3-.6.086-.943-.6-.943H25.418a1.2,1.2,0,0,0-.99.6L19.821,83.331A13.934,13.934,0,0,1,12.2,78.36a13.4,13.4,0,0,1-3.014-8.614,13.231,13.231,0,0,1,3.66-9.3,14.2,14.2,0,0,1,9.042-4.586l2.239-.257c.56,0,.861-.257.861-.771l.258-2.186a17.583,17.583,0,0,1,5.942-11.657,18.382,18.382,0,0,1,24.584,0A17.875,17.875,0,0,1,61.8,52.645l.258,2.486c0,.471.258.729.775.729h6.932a13.747,13.747,0,0,1,9.989,4.071,13.671,13.671,0,0,1,.3,19.286,14.2,14.2,0,0,1-9.429,4.457c-.56,0-.861.257-.861.771v5.872c0,.471.3.729.861.729a21.276,21.276,0,0,0,20.58-21.257,19.453,19.453,0,0,0-1.851-8.614,21.611,21.611,0,0,0,5.08-14.229,21.9,21.9,0,0,0-3.057-11.229A22.72,22.72,0,0,0,71.831,24.444a21.712,21.712,0,0,0-16.705,7.414A24.505,24.505,0,0,0,43.5,29.073a25.37,25.37,0,0,0-16.189,5.614,24.939,24.939,0,0,0-9.041,14.4A20.484,20.484,0,0,0,6.517,56.5,20.921,20.921,0,0,0,1.824,69.745ZM36.655,110.8a2.676,2.676,0,0,0,.6,1.886,4.614,4.614,0,0,0,1.981,1.414,3.292,3.292,0,0,0,.9.129,4.313,4.313,0,0,0,2.2-.643,3.251,3.251,0,0,0,1.464-2.014l9.86-36.729a3.606,3.606,0,0,0-2.411-4.457,3.361,3.361,0,0,0-2.8.3,3.408,3.408,0,0,0-1.722,2.186l-9.946,36.858A4.061,4.061,0,0,0,36.655,110.8Zm1.421-93.644a3.268,3.268,0,0,0,1.076,2.529l2.756,2.829a3.763,3.763,0,0,0,2.626,1.114,2.914,2.914,0,0,0,2.454-1.114,3.087,3.087,0,0,0,1.206-2.571,3.268,3.268,0,0,0-1.076-2.529l-2.712-2.829a3.757,3.757,0,0,0-2.626-1.029,3.644,3.644,0,0,0-2.669,1.029A3.481,3.481,0,0,0,38.076,17.159Zm16.49,80.573a3.643,3.643,0,0,0,.474,1.629,4.707,4.707,0,0,0,2.153,1.843,3.351,3.351,0,0,0,1.292.214,2.989,2.989,0,0,0,1.421-.257,3.247,3.247,0,0,0,1.765-2.486l6.415-23.786a3.519,3.519,0,0,0-2.5-4.457,3.246,3.246,0,0,0-2.756.3,3.348,3.348,0,0,0-1.679,2.186L54.7,96.746a3.8,3.8,0,0,1-.086.471A2.665,2.665,0,0,0,54.566,97.731Zm6.587-61.672a15.611,15.611,0,0,1,21.441.214A14.373,14.373,0,0,1,87.072,46.9a15.735,15.735,0,0,1-2.239,7.929,20.788,20.788,0,0,0-15.069-6.3H68.43A26.019,26.019,0,0,0,61.153,36.059Zm6.932-22.5a3.82,3.82,0,0,0,3.7,3.686,3.3,3.3,0,0,0,2.54-1.071,3.612,3.612,0,0,0,.99-2.614V4.73a3.8,3.8,0,0,0-.99-2.614,3.236,3.236,0,0,0-2.54-1.071A3.522,3.522,0,0,0,69.2,2.115,3.557,3.557,0,0,0,68.085,4.73ZM91.895,23.33A3.4,3.4,0,0,0,93.014,25.9a3,3,0,0,0,2.454,1.071A3.389,3.389,0,0,0,98.051,25.9l6.2-6.214a3.306,3.306,0,0,0,1.119-2.529,3.667,3.667,0,0,0-3.7-3.686,3.287,3.287,0,0,0-2.454,1.114l-6.2,6.172A3.4,3.4,0,0,0,91.895,23.33Zm3.487,50.829a3.77,3.77,0,0,0,1.033,2.571l2.842,2.7a3.194,3.194,0,0,0,2.325,1.029l.043.043h.431a3.219,3.219,0,0,0,2.282-1.114,3.4,3.4,0,0,0,1.119-2.571,3.7,3.7,0,0,0-1.119-2.614l-2.8-2.614a3.273,3.273,0,0,0-2.5-1.157A3.522,3.522,0,0,0,96.458,71.5,3.751,3.751,0,0,0,95.382,74.159Zm6.243-27.215a3.42,3.42,0,0,0,1.162,2.571,3.609,3.609,0,0,0,2.626,1.157h8.74a3.565,3.565,0,0,0,2.583-1.114,3.627,3.627,0,0,0,1.119-2.614,3.331,3.331,0,0,0-1.076-2.529,3.683,3.683,0,0,0-2.626-1.029h-8.74a3.817,3.817,0,0,0-2.712,1.029A3.331,3.331,0,0,0,101.625,46.945Z" transform="translate(-1.824 -1.044)"/></svg>