<?xml version="1.0" encoding="utf-8"?>
<!-- Generator: Adobe Illustrator 21.0.0, SVG Export Plug-In . SVG Version: 6.00 Build 0)  -->
<svg version="1.1" id="Layer_1" xmlns="http://www.w3.org/2000/svg" xmlns:xlink="http://www.w3.org/1999/xlink" x="0px" y="0px"
	 viewBox="0 0 32.3 32" style="enable-background:new 0 0 32.3 32;" xml:space="preserve">
<style type="text/css">
	.st0{fill:#FFFFFF;}
</style>
<path id="Icon_weather-day-showers" class="st0" d="M0,19.1c0,1.5,0.6,3,1.7,4.1c1.1,1.1,2.5,1.8,4.1,1.8c0.1,0,0.2-0.1,0.2-0.2
	c0,0,0,0,0,0v-1.6c0-0.1-0.1-0.2-0.2-0.2c-1,0-1.9-0.5-2.6-1.2c-0.7-0.7-1.1-1.7-1.1-2.7c0-1,0.3-1.9,1-2.6c0.7-0.7,1.6-1.2,2.5-1.3
	l0.6,0c0.2,0,0.2-0.1,0.2-0.2l0.1-0.6c0.1-1.3,0.7-2.4,1.6-3.3c0.9-0.9,2.2-1.3,3.4-1.3c1.3,0,2.5,0.4,3.4,1.3
	c0.9,0.8,1.5,2,1.6,3.3l0.1,0.7c0,0.1,0.1,0.2,0.2,0.2c0,0,0,0,0.1,0h2c2.1,0,3.9,1.7,3.9,3.8c0,1-0.4,2-1.1,2.7
	c-0.7,0.7-1.6,1.2-2.6,1.3C19,23,19,23.1,19,23.3v1.6c0,0.1,0.1,0.2,0.2,0.2c0,0,0,0,0,0c1,0,2-0.3,2.9-0.9c0.9-0.5,1.6-1.3,2.1-2.2
	c0.5-0.9,0.8-1.9,0.7-2.9c0-0.8-0.2-1.6-0.5-2.4c0.9-1.1,1.4-2.5,1.4-3.9c0-0.8-0.2-1.7-0.5-2.4c-0.3-0.7-0.8-1.4-1.3-2
	c-0.6-0.6-1.2-1-2-1.3c-0.8-0.3-1.6-0.5-2.4-0.5c-1.7,0-3.4,0.7-4.6,2c-1-0.5-2.1-0.8-3.3-0.8c-1.6,0-3.2,0.5-4.5,1.6
	c-1.3,1-2.2,2.4-2.5,4c-1.3,0.3-2.5,1-3.3,2.1C0.4,16.5,0,17.8,0,19.1z M6.5,27.2c0,0.2,0.1,0.4,0.2,0.6C6.8,28,7,28.2,7.2,28.2
	c0.2,0.1,0.5,0.1,0.7-0.1c0.3-0.1,0.5-0.4,0.5-0.7l0.3-1.3c0.1-0.2,0.1-0.5-0.1-0.7c-0.1-0.2-0.4-0.4-0.6-0.5
	c-0.3-0.1-0.6,0-0.8,0.1c-0.2,0.1-0.4,0.4-0.4,0.6l-0.3,1.2C6.5,27,6.5,27,6.5,27.2z M8.1,21.5c0,0.5,0.3,0.9,0.8,0.9
	c0.3,0.1,0.5,0.1,0.8-0.1c0.2-0.1,0.4-0.4,0.5-0.6l0.3-1.2c0.1-0.2,0.1-0.5-0.1-0.7c-0.1-0.2-0.3-0.4-0.6-0.5
	c-0.3-0.1-0.6,0-0.8,0.1c-0.2,0.1-0.4,0.4-0.4,0.6l-0.4,1.2C8.1,21.3,8.1,21.4,8.1,21.5L8.1,21.5z M9.5,31c0,0.2,0.1,0.4,0.2,0.6
	c0.1,0.2,0.3,0.4,0.6,0.4c0,0,0.1,0,0.1,0c0.1,0,0.1,0,0.2,0c0.2,0,0.3,0,0.4-0.1c0.3-0.1,0.4-0.4,0.5-0.7l0.3-1.2
	c0.1-0.3,0.1-0.5-0.1-0.8c-0.1-0.2-0.4-0.4-0.6-0.5c-0.3-0.1-0.5-0.1-0.8,0.1c-0.2,0.1-0.4,0.4-0.5,0.6l-0.3,1.2
	C9.5,30.8,9.5,30.9,9.5,31z M10.1,4.5c0,0.3,0.1,0.6,0.3,0.7L11.2,6c0.4,0.4,1,0.4,1.4,0c0,0,0,0,0,0c0.2-0.2,0.3-0.5,0.3-0.7
	c0-0.3-0.1-0.5-0.3-0.7l-0.8-0.8c-0.4-0.4-1-0.4-1.4,0C10.2,3.9,10.1,4.2,10.1,4.5z M11.1,25.2c0,0.2,0.1,0.4,0.2,0.6
	c0.1,0.2,0.3,0.4,0.6,0.4c0.5,0.2,1-0.1,1.2-0.6c0-0.1,0-0.1,0-0.2l0.3-1.2c0.1-0.3,0.1-0.5-0.1-0.8c-0.1-0.2-0.3-0.4-0.6-0.5
	c-0.3-0.1-0.6,0-0.8,0.1c-0.2,0.1-0.4,0.4-0.4,0.6L11.2,25C11.1,25.1,11.1,25.1,11.1,25.2z M14.5,27.3c0,0.5,0.3,0.9,0.8,1l0.3,0
	c0.2,0,0.4-0.1,0.6-0.2c0.2-0.1,0.3-0.4,0.4-0.6l0.3-1.2c0.1-0.3,0-0.6-0.1-0.8c-0.1-0.2-0.4-0.4-0.6-0.4c-0.2-0.1-0.5-0.1-0.7,0.1
	c-0.2,0.1-0.4,0.4-0.5,0.6L14.5,27c0,0,0,0.1,0,0.1S14.5,27.2,14.5,27.3C14.5,27.2,14.5,27.3,14.5,27.3z M16.2,21.6
	c0,0.2,0.1,0.4,0.2,0.6c0.1,0.2,0.3,0.3,0.5,0.4l0.3,0c0.2,0,0.4-0.1,0.6-0.2c0.2-0.1,0.3-0.3,0.3-0.6l0.3-1.2
	c0.2-0.5-0.1-1.1-0.6-1.2c0,0,0,0-0.1,0c-0.5-0.2-1.1,0.1-1.2,0.6c0,0,0,0,0,0.1l-0.4,1.3C16.2,21.4,16.2,21.5,16.2,21.6L16.2,21.6z
	 M16.6,9.7c0.8-0.8,1.8-1.2,2.9-1.2c2.4,0,4.3,1.9,4.3,4.3c0,0.7-0.2,1.5-0.6,2.1c-1.1-1.1-2.6-1.7-4.2-1.7h-0.4
	C18.3,11.9,17.6,10.7,16.6,9.7L16.6,9.7z M18.4,3.5c0,0.6,0.5,1,1,1c0.6,0,1-0.5,1-1c0,0,0,0,0,0V1c0-0.3-0.1-0.5-0.3-0.7
	c-0.4-0.4-1.1-0.4-1.5,0c-0.2,0.2-0.3,0.5-0.3,0.7L18.4,3.5z M25.1,6.2c0,0.3,0.1,0.5,0.3,0.7c0.2,0.2,0.5,0.3,0.7,0.3
	c0.3,0,0.5-0.1,0.7-0.3l1.7-1.7c0.2-0.2,0.3-0.5,0.3-0.8c0-0.5-0.4-1-1-1c0,0,0,0,0,0c-0.3,0-0.5,0.1-0.7,0.3l-1.7,1.7
	C25.2,5.7,25.1,5.9,25.1,6.2L25.1,6.2z M26,20.4c0,0.3,0.1,0.6,0.3,0.8l0.7,0.8c0.2,0.2,0.5,0.4,0.7,0.4c0.6-0.1,1-0.5,1-1.1
	c0-0.3-0.1-0.5-0.3-0.7l-0.8-0.8c-0.2-0.2-0.4-0.3-0.7-0.3C26.5,19.4,26,19.8,26,20.4L26,20.4z M27.8,12.8c0,0.5,0.4,1,1,1
	c0,0,0,0,0,0h2.4c0.3,0,0.5-0.1,0.8-0.3c0.2-0.2,0.3-0.4,0.3-0.7c0-0.3-0.1-0.6-0.3-0.7c-0.2-0.2-0.5-0.3-0.7-0.3h-2.4
	c-0.3,0-0.5,0.1-0.7,0.3C27.9,12.3,27.8,12.6,27.8,12.8L27.8,12.8z"/>
</svg>
