<svg xmlns="http://www.w3.org/2000/svg" width="36.436" height="35.838" viewBox="0 0 36.436 35.838"><defs><style>.a{fill:#fff;}</style></defs><path class="a" d="M1.824,22.617A6.453,6.453,0,0,0,3.149,26.6,6.6,6.6,0,0,0,6.623,29l-.865,2.288c-.054.188,0,.283.189.283h2.88l-1.69,5.316h.392l5.638-7.254a.143.143,0,0,0,.014-.188c-.027-.067-.095-.094-.189-.094H10.057L13.4,23.115c.095-.188.027-.3-.189-.3H9.233a.376.376,0,0,0-.311.188L7.475,26.883a4.375,4.375,0,0,1-2.393-1.561,4.206,4.206,0,0,1-.946-2.705A4.155,4.155,0,0,1,5.285,19.7a4.46,4.46,0,0,1,2.839-1.44l.7-.081c.176,0,.27-.081.27-.242l.081-.686a5.521,5.521,0,0,1,1.866-3.661,5.772,5.772,0,0,1,7.72,0,5.613,5.613,0,0,1,1.893,3.661l.081.781c0,.148.081.229.243.229h2.177a4.317,4.317,0,0,1,3.137,1.278,4.293,4.293,0,0,1,.095,6.056,4.458,4.458,0,0,1-2.961,1.4c-.176,0-.27.081-.27.242v1.844c0,.148.095.229.27.229a6.681,6.681,0,0,0,6.462-6.675,6.109,6.109,0,0,0-.581-2.705,6.786,6.786,0,0,0,1.6-4.468,6.877,6.877,0,0,0-.96-3.526,7.134,7.134,0,0,0-6.138-3.539,6.818,6.818,0,0,0-5.246,2.328,7.7,7.7,0,0,0-3.65-.875,7.966,7.966,0,0,0-5.083,1.763A7.831,7.831,0,0,0,6.989,16.13,6.432,6.432,0,0,0,3.3,18.458,6.57,6.57,0,0,0,1.824,22.617ZM12.761,35.509a.84.84,0,0,0,.189.592,1.449,1.449,0,0,0,.622.444,1.034,1.034,0,0,0,.284.04,1.354,1.354,0,0,0,.689-.2,1.021,1.021,0,0,0,.46-.633l3.1-11.533a1.132,1.132,0,0,0-.757-1.4,1.055,1.055,0,0,0-.879.094,1.07,1.07,0,0,0-.541.686L12.8,35.173A1.275,1.275,0,0,0,12.761,35.509ZM13.208,6.1a1.026,1.026,0,0,0,.338.794l.865.888a1.182,1.182,0,0,0,.825.35.915.915,0,0,0,.771-.35.969.969,0,0,0,.379-.807,1.026,1.026,0,0,0-.338-.794L15.195,5.3a1.18,1.18,0,0,0-.825-.323,1.144,1.144,0,0,0-.838.323A1.093,1.093,0,0,0,13.208,6.1Zm5.178,25.3a1.144,1.144,0,0,0,.149.511,1.478,1.478,0,0,0,.676.579,1.052,1.052,0,0,0,.406.067.939.939,0,0,0,.446-.081,1.019,1.019,0,0,0,.554-.781l2.014-7.469a1.1,1.1,0,0,0-.784-1.4,1.019,1.019,0,0,0-.865.094,1.051,1.051,0,0,0-.527.686L18.426,31.1a1.194,1.194,0,0,1-.027.148A.837.837,0,0,0,18.386,31.4Zm2.069-19.366a4.9,4.9,0,0,1,6.733.067,4.513,4.513,0,0,1,1.406,3.338,4.941,4.941,0,0,1-.7,2.49,6.528,6.528,0,0,0-4.732-1.978h-.419A8.17,8.17,0,0,0,20.454,12.039Zm2.177-7.065a1.2,1.2,0,0,0,1.163,1.157,1.035,1.035,0,0,0,.8-.336,1.134,1.134,0,0,0,.311-.821V2.2a1.193,1.193,0,0,0-.311-.821,1.016,1.016,0,0,0-.8-.336,1.106,1.106,0,0,0-.811.336,1.117,1.117,0,0,0-.352.821Zm7.476,3.068a1.067,1.067,0,0,0,.352.807.942.942,0,0,0,.771.336,1.064,1.064,0,0,0,.811-.336L33.987,6.9a1.038,1.038,0,0,0,.352-.794,1.151,1.151,0,0,0-1.163-1.157,1.032,1.032,0,0,0-.771.35L30.459,7.235A1.067,1.067,0,0,0,30.107,8.042ZM31.2,24a1.184,1.184,0,0,0,.324.807l.892.848a1,1,0,0,0,.73.323l.014.013H33.3a1.011,1.011,0,0,0,.717-.35,1.067,1.067,0,0,0,.352-.807,1.162,1.162,0,0,0-.352-.821l-.879-.821a1.028,1.028,0,0,0-.784-.363,1.106,1.106,0,0,0-.811.336A1.178,1.178,0,0,0,31.2,24Zm1.96-8.546a1.074,1.074,0,0,0,.365.807,1.133,1.133,0,0,0,.825.363H37.1a1.119,1.119,0,0,0,.811-.35,1.139,1.139,0,0,0,.352-.821,1.046,1.046,0,0,0-.338-.794,1.157,1.157,0,0,0-.825-.323H34.352a1.2,1.2,0,0,0-.852.323A1.046,1.046,0,0,0,33.163,15.457Z" transform="translate(-1.824 -1.044)"/></svg>