<?xml version="1.0" encoding="utf-8"?>
<!-- Generator: Adobe Illustrator 21.0.0, SVG Export Plug-In . SVG Version: 6.00 Build 0)  -->
<svg version="1.1" id="Layer_1" xmlns="http://www.w3.org/2000/svg" xmlns:xlink="http://www.w3.org/1999/xlink" x="0px" y="0px"
	 viewBox="0 0 24.9 24" style="enable-background:new 0 0 24.9 24;" xml:space="preserve">
<style type="text/css">
	.st0{fill:#FFFFFF;}
</style>
<path id="Icon_weather-snow" class="st0" d="M0,11.4c0-1.3,0.4-2.7,1.3-3.7c0.8-1.1,2-1.8,3.3-2.1c0.3-1.6,1.2-3,2.5-4
	c2.6-2.1,6.3-2.1,8.9,0c1.3,1,2.2,2.4,2.5,3.9h0.4c3.3,0,5.9,2.6,6,5.9c0,0,0,0,0,0c0,3.2-2.5,5.8-5.7,5.9c-0.2,0-0.2-0.1-0.2-0.2
	v-1.6c0-0.1,0.1-0.2,0.2-0.2c1,0,1.9-0.5,2.6-1.2c1.5-1.6,1.4-4.1-0.2-5.5c-0.7-0.7-1.7-1-2.7-1.1h-1.9c-0.1,0-0.2-0.1-0.2-0.2
	l-0.1-0.7C16.3,4,14.2,2,11.5,2C8.9,2,6.7,4,6.5,6.6L6.4,7.2c0,0.1-0.1,0.2-0.2,0.2c0,0,0,0,0,0L5.5,7.5C4.5,7.6,3.6,8,3,8.8
	c-1.4,1.6-1.3,4.1,0.3,5.5c0.7,0.6,1.5,0.9,2.4,1c0.1,0,0.2,0.1,0.2,0.2v1.6c0,0.1-0.1,0.2-0.2,0.2c0,0,0,0,0,0
	c-1.5,0-3-0.7-4.1-1.8C0.6,14.4,0,12.9,0,11.4z M7.6,16.3c0-0.3,0.1-0.5,0.3-0.7c0.2-0.2,0.4-0.3,0.7-0.3c0.6,0,1,0.5,1,1
	c0,0.3-0.1,0.5-0.3,0.7c-0.2,0.2-0.4,0.3-0.7,0.3c-0.3,0-0.5-0.1-0.7-0.3C7.7,16.8,7.6,16.6,7.6,16.3z M7.6,20.7c0-0.5,0.4-1,0.9-1
	c0,0,0,0,0.1,0c0.3,0,0.5,0.1,0.7,0.3c0.4,0.4,0.4,1,0,1.4c-0.2,0.2-0.4,0.3-0.7,0.3c-0.3,0-0.5-0.1-0.7-0.3
	C7.7,21.2,7.6,20.9,7.6,20.7z M11.5,18.6c0-0.3,0.1-0.5,0.3-0.7c0.2-0.2,0.4-0.3,0.7-0.3c0.6,0,1,0.5,1,1c0,0.6-0.5,1-1,1
	c0,0,0,0,0,0c-0.3,0-0.5-0.1-0.7-0.3C11.6,19.1,11.5,18.9,11.5,18.6z M11.5,14.3c0-0.3,0.1-0.5,0.3-0.7c0.2-0.2,0.4-0.3,0.7-0.3
	c0.3,0,0.5,0.1,0.7,0.3c0.2,0.2,0.3,0.4,0.3,0.7c0,0.3-0.1,0.5-0.3,0.7c-0.2,0.2-0.5,0.3-0.7,0.3c-0.3,0-0.5-0.1-0.7-0.3
	C11.6,14.8,11.5,14.5,11.5,14.3L11.5,14.3z M11.5,23c0-0.3,0.1-0.5,0.3-0.7c0.2-0.2,0.4-0.3,0.7-0.3c0.6,0,1,0.5,1,1c0,0,0,0,0,0
	c0,0.3-0.1,0.5-0.3,0.7C13,23.9,12.7,24,12.4,24c-0.3,0-0.5-0.1-0.7-0.3C11.6,23.5,11.5,23.3,11.5,23z M15.3,16.3
	c0-0.3,0.1-0.5,0.3-0.7c0.2-0.2,0.4-0.3,0.7-0.3c0.6,0,1,0.5,1,1c0,0.3-0.1,0.5-0.3,0.7c-0.2,0.2-0.4,0.3-0.7,0.3
	c-0.3,0-0.5-0.1-0.7-0.3C15.4,16.8,15.3,16.6,15.3,16.3z M15.3,20.7c0-0.5,0.4-1,1-1c0,0,0,0,0.1,0c0.3,0,0.5,0.1,0.7,0.3
	c0.2,0.2,0.3,0.4,0.3,0.7c0,0.3-0.1,0.5-0.3,0.7c-0.2,0.2-0.4,0.3-0.7,0.3c-0.3,0-0.5-0.1-0.7-0.3C15.4,21.2,15.3,20.9,15.3,20.7z"
	/>
</svg>
