<svg id="flooded-house" xmlns="http://www.w3.org/2000/svg" width="42.003" height="42.168" viewBox="0 0 42.003 42.168">
  <path id="Path_5" data-name="Path 5" d="M281.735,195.981h6.589a1.235,1.235,0,0,0,1.235-1.235v-6.589a1.235,1.235,0,0,0-1.235-1.235h-6.589a1.235,1.235,0,0,0-1.235,1.235v6.589A1.235,1.235,0,0,0,281.735,195.981Zm1.235-6.589h4.118v4.118h-4.118Zm0,0" transform="translate(-257.44 -171.527)" fill="#fff"/>
  <path id="Path_6" data-name="Path 6" d="M1.735,28.991a2.719,2.719,0,0,1,1.786.616,5.09,5.09,0,0,0,3.156,1.031,5.09,5.09,0,0,0,3.156-1.031,2.718,2.718,0,0,1,1.786-.616,2.719,2.719,0,0,1,1.786.616,5.09,5.09,0,0,0,3.156,1.031,5.09,5.09,0,0,0,3.156-1.031,2.9,2.9,0,0,1,3.571,0,5.345,5.345,0,0,0,6.312,0,2.9,2.9,0,0,1,3.571,0,5.345,5.345,0,0,0,6.313,0,2.712,2.712,0,0,1,1.785-.616,1.235,1.235,0,1,0,0-2.471,5.086,5.086,0,0,0-3.156,1.031,6.209,6.209,0,0,1-.55.341v-12.6l1.3,1.012a1.235,1.235,0,1,0,1.517-1.951L22.26.261a1.235,1.235,0,0,0-1.517,0L2.624,14.354A1.235,1.235,0,0,0,4.141,16.3l1.3-1.011v12.6a6.261,6.261,0,0,1-.55-.341A5.092,5.092,0,0,0,1.736,26.52a1.235,1.235,0,0,0,0,2.471Zm16.884-1.62q-.142.092-.273.18a2.9,2.9,0,0,1-3.571,0,5.438,5.438,0,0,0-1.92-.9V17.866h5.765ZM21.5,2.8,35.091,13.371V27.893a6.209,6.209,0,0,1-.55-.341,5.346,5.346,0,0,0-6.312,0,2.9,2.9,0,0,1-3.571,0A5.092,5.092,0,0,0,21.5,26.52c-.144,0-.28.006-.412.014v-9.9A1.235,1.235,0,0,0,19.854,15.4H11.619a1.235,1.235,0,0,0-1.235,1.235V26.652a5.438,5.438,0,0,0-1.92.9,6.34,6.34,0,0,1-.55.341V13.371Zm0,0" transform="translate(-0.5 -0.001)" fill="#fff"/>
  <path id="Path_7" data-name="Path 7" d="M41.268,392a5.086,5.086,0,0,0-3.156,1.031,2.894,2.894,0,0,1-3.57,0,5.346,5.346,0,0,0-6.312,0,2.9,2.9,0,0,1-3.571,0,5.346,5.346,0,0,0-6.312,0,2.9,2.9,0,0,1-3.571,0A5.092,5.092,0,0,0,11.618,392a5.092,5.092,0,0,0-3.156,1.031,2.717,2.717,0,0,1-1.786.616,2.717,2.717,0,0,1-1.786-.616A5.092,5.092,0,0,0,1.735,392a1.235,1.235,0,0,0,0,2.471,2.719,2.719,0,0,1,1.786.616,5.09,5.09,0,0,0,3.156,1.031,5.09,5.09,0,0,0,3.156-1.031,2.718,2.718,0,0,1,1.786-.616,2.719,2.719,0,0,1,1.786.616,5.09,5.09,0,0,0,3.156,1.031,5.09,5.09,0,0,0,3.156-1.031,2.9,2.9,0,0,1,3.571,0,5.345,5.345,0,0,0,6.312,0,2.9,2.9,0,0,1,3.571,0,5.345,5.345,0,0,0,6.313,0,2.712,2.712,0,0,1,1.785-.616,1.235,1.235,0,1,0,0-2.471Zm0,0" transform="translate(-0.5 -359.715)" fill="#fff"/>
  <path id="Path_8" data-name="Path 8" d="M41.268,462a5.086,5.086,0,0,0-3.156,1.031,2.894,2.894,0,0,1-3.57,0,5.346,5.346,0,0,0-6.312,0,2.9,2.9,0,0,1-3.571,0,5.346,5.346,0,0,0-6.312,0,2.9,2.9,0,0,1-3.571,0A5.092,5.092,0,0,0,11.618,462a5.092,5.092,0,0,0-3.156,1.031,2.717,2.717,0,0,1-1.786.616,2.717,2.717,0,0,1-1.786-.616A5.092,5.092,0,0,0,1.735,462a1.235,1.235,0,0,0,0,2.471,2.719,2.719,0,0,1,1.786.616,5.09,5.09,0,0,0,3.156,1.031,5.09,5.09,0,0,0,3.156-1.031,2.718,2.718,0,0,1,1.786-.616,2.719,2.719,0,0,1,1.786.616,5.09,5.09,0,0,0,3.156,1.031,5.09,5.09,0,0,0,3.156-1.031,2.9,2.9,0,0,1,3.571,0,5.345,5.345,0,0,0,6.312,0,2.9,2.9,0,0,1,3.571,0,5.345,5.345,0,0,0,6.313,0,2.712,2.712,0,0,1,1.785-.616,1.235,1.235,0,1,0,0-2.471Zm0,0" transform="translate(-0.5 -423.95)" fill="#fff"/>
</svg>
