<svg xmlns="http://www.w3.org/2000/svg" width="42.168" height="42.164" viewBox="0 0 42.168 42.164">
  <path id="forestfire" d="M37.5,23.073c-2.094-1.592-3.748-2.85-3.748-6.316v-1.65h-2.41l-.453.287c-4.107,2.6-11,8.077-11,15.618a11.137,11.137,0,1,0,22.273,0c0-4.389-2.588-6.357-4.667-7.939ZM28.706,36.555c0-.991.9-2.535,1.8-3.772a10.6,10.6,0,0,0,1.543,1.731c.951.912,1.31,1.324,1.31,2.041a2.324,2.324,0,0,1-4.649,0Zm7.947-.079a5.916,5.916,0,0,0-2.324-4.343c-.975-.935-1.483-1.471-1.483-2.5v-1.65H30.44l-.457.375A17.959,17.959,0,0,0,27.448,31.4a9.911,9.911,0,0,0-2.039,5.081,7.835,7.835,0,0,1-2.215-5.466c0-4.983,4.143-9.04,7.566-11.542.786,3.22,2.941,4.859,4.743,6.23,1.953,1.486,3.365,2.559,3.365,5.312a7.834,7.834,0,0,1-2.214,5.465ZM18.917,38.865h-2.24v3.3h-3.3v-3.3H0L6,28.223H2.233L8.28,17.994H4.924L15.627,0,24.6,15.511a28.453,28.453,0,0,0-4.461,4.64l-3.327-5.6h3.381l-4.566-8.1-4.9,8.239h3.337L8.016,24.923H11.65l-6,10.642h11.68a14.416,14.416,0,0,0,1.588,3.3Zm0,0" transform="translate(0 0)" fill="#fff"/>
</svg>
