<?xml version="1.0" encoding="utf-8"?>
<!-- Generator: Adobe Illustrator 21.0.0, SVG Export Plug-In . SVG Version: 6.00 Build 0)  -->
<svg version="1.1" id="Layer_1" xmlns="http://www.w3.org/2000/svg" xmlns:xlink="http://www.w3.org/1999/xlink" x="0px" y="0px"
	 viewBox="0 0 512 512" style="enable-background:new 0 0 512 512;" xml:space="preserve">
<style type="text/css">
	.st0{fill:#FFFFFF;}
</style>
<g>
	<path class="st0" d="M234.5,317.7V65c0-35.8-29.2-65-65-65s-65,29.2-65,65v252.7c-27.1,20.4-43,52-43,86.3c0,59.6,48.4,108,108,108
		s108-48.4,108-108C277.5,369.8,261.6,338.1,234.5,317.7z M169.5,482c-43,0-78-35-78-78c0-26.8,13.5-51.4,36.1-65.8
		c4.3-2.8,6.9-7.5,6.9-12.6V65c0-19.3,15.7-35,35-35s35,15.7,35,35v260.6c0,5.1,2.6,9.9,6.9,12.6c22.6,14.4,36.1,39,36.1,65.8
		C247.5,447,212.5,482,169.5,482L169.5,482z"/>
	<path class="st0" d="M184.5,361.6V65c0-8.3-6.7-15-15-15s-15,6.7-15,15v296.6c-17.5,6.2-30,22.9-30,42.4c0,24.8,20.2,45,45,45
		s45-20.2,45-45C214.5,384.4,202,367.8,184.5,361.6z M169.5,419c-8.3,0-15-6.7-15-15s6.7-15,15-15s15,6.7,15,15S177.8,419,169.5,419
		z"/>
	<path class="st0" d="M279.5,79.6c-8.3,0-15,6.7-15,15s6.7,15,15,15c34.1,0,61.9,27.8,61.9,61.9c0,34.1-27.8,61.9-61.9,61.9
		c-8.3,0-15,6.7-15,15s6.7,15,15,15c50.7,0,91.9-41.2,91.9-91.9C371.4,120.8,330.2,79.6,279.5,79.6L279.5,79.6z"/>
	<path class="st0" d="M279.5,56c8.3,0,15-6.7,15-15V15c0-8.3-6.7-15-15-15s-15,6.7-15,15v26C264.5,49.3,271.2,56,279.5,56z"/>
	<path class="st0" d="M279.5,287c-8.3,0-15,6.7-15,15v26c0,8.3,6.7,15,15,15s15-6.7,15-15v-26C294.5,293.7,287.8,287,279.5,287z"/>
	<path class="st0" d="M435.5,156.5h-26c-8.3,0-15,6.7-15,15s6.7,15,15,15h26c8.3,0,15-6.7,15-15S443.8,156.5,435.5,156.5z"/>
	<path class="st0" d="M371.8,94.2c3.8,0,7.7-1.5,10.6-4.4l18.4-18.4c5.9-5.9,5.9-15.4,0-21.2c-5.9-5.9-15.4-5.9-21.2,0l-18.4,18.4
		c-5.9,5.9-5.9,15.4,0,21.2C364.1,92.8,367.9,94.2,371.8,94.2L371.8,94.2z"/>
	<path class="st0" d="M382,252.8c-5.9-5.9-15.4-5.9-21.2,0c-5.9,5.9-5.9,15.4,0,21.2l18.4,18.4c2.9,2.9,6.8,4.4,10.6,4.4
		s7.7-1.5,10.6-4.4c5.9-5.9,5.9-15.4,0-21.2L382,252.8z"/>
</g>
</svg>
