<?xml version="1.0" encoding="utf-8"?>
<!-- Generator: Adobe Illustrator 21.0.0, SVG Export Plug-In . SVG Version: 6.00 Build 0)  -->
<svg version="1.1" id="Layer_1" xmlns="http://www.w3.org/2000/svg" xmlns:xlink="http://www.w3.org/1999/xlink" x="0px" y="0px"
	 viewBox="0 0 512 512" style="enable-background:new 0 0 512 512;" xml:space="preserve">
<style type="text/css">
	.st0{fill:#FFFFFF;}
</style>
<g>
	<path class="st0" d="M439,174c0-8.3-6.7-15-15-15h-0.3l0.6-1c4.1-7.2,1.7-16.3-5.5-20.5c-7.2-4.1-16.3-1.7-20.5,5.5l-9.3,16h-61.8
		l43.7-43.7l17.9,4.8c1.3,0.3,2.6,0.5,3.9,0.5c6.6,0,12.7-4.4,14.5-11.1c2.1-8-2.6-16.2-10.6-18.4l-1.2-0.3l0.2-0.2
		c5.9-5.9,5.9-15.4,0-21.2c-5.9-5.9-15.4-5.9-21.2,0l-0.2,0.2l-0.3-1.2c-2.1-8-10.4-12.8-18.4-10.6c-8,2.1-12.8,10.4-10.6,18.4
		l4.8,17.9L306,137.8V76l16-9.3c7.2-4.1,9.6-13.3,5.5-20.5c-4.1-7.2-13.3-9.6-20.5-5.5l-1,0.6V41c0-8.3-6.7-15-15-15s-15,6.7-15,15
		v266c0,8.3,6.7,15,15,15s15-6.7,15-15v-0.3l1,0.6c2.4,1.4,4.9,2,7.5,2c5.2,0,10.2-2.7,13-7.5c4.1-7.2,1.7-16.3-5.5-20.5l-16-9.3
		v-61.8l43.7,43.7l-4.8,17.9c-2.1,8,2.6,16.2,10.6,18.4c1.3,0.3,2.6,0.5,3.9,0.5c6.6,0,12.7-4.4,14.5-11.1l0.3-1.2l0.2,0.2
		c2.9,2.9,6.8,4.4,10.6,4.4s7.7-1.5,10.6-4.4c5.9-5.9,5.9-15.4,0-21.2l-0.2-0.2l1.2-0.3c8-2.1,12.8-10.4,10.6-18.4
		c-2.1-8-10.4-12.8-18.4-10.6l-17.9,4.8L327.2,189H389l9.3,16c2.8,4.8,7.8,7.5,13,7.5c2.5,0,5.1-0.6,7.5-2
		c7.2-4.1,9.6-13.3,5.5-20.5l-0.6-1h0.3C432.3,189,439,182.3,439,174L439,174z"/>
	<path class="st0" d="M246,317.7V65c0-35.8-29.2-65-65-65s-65,29.2-65,65v252.7c-27.1,20.4-43,52-43,86.3c0,59.6,48.4,108,108,108
		s108-48.4,108-108C289,369.8,273.1,338.1,246,317.7L246,317.7z M181,482c-43,0-78-35-78-78c0-26.8,13.5-51.4,36.1-65.8
		c4.3-2.8,6.9-7.5,6.9-12.6V65c0-19.3,15.7-35,35-35s35,15.7,35,35v260.6c0,5.1,2.6,9.9,6.9,12.6c22.6,14.4,36.1,39,36.1,65.8
		C259,447,224,482,181,482L181,482z"/>
	<path class="st0" d="M196,361.6V65c0-8.3-6.7-15-15-15s-15,6.7-15,15v296.6c-17.5,6.2-30,22.9-30,42.4c0,24.8,20.2,45,45,45
		s45-20.2,45-45C226,384.4,213.5,367.8,196,361.6z M181,419c-8.3,0-15-6.7-15-15s6.7-15,15-15s15,6.7,15,15S189.3,419,181,419z"/>
</g>
</svg>
