<svg id="snow-avalanche" xmlns="http://www.w3.org/2000/svg" width="42.168" height="42.168" viewBox="0 0 42.168 42.168">
  <path id="Path_9" data-name="Path 9" d="M40.933,39.7H34.164l-2.189-6.568a1.235,1.235,0,0,0-.637-.723L19.745,26.837l-1.656-3.63c.146.012.294.02.443.02A5.353,5.353,0,1,0,13.2,17.371L9.67,15.383,7.35,8.423a1.238,1.238,0,0,0-.137-.284L2.271.562A1.235,1.235,0,0,0,0,1.237v39.7a1.235,1.235,0,0,0,1.235,1.235h39.7a1.235,1.235,0,0,0,0-2.471Zm-22.4-24.708a2.883,2.883,0,1,1-2.883,2.883A2.886,2.886,0,0,1,18.532,14.991ZM2.472,39.7V5.393L5.056,9.356l2.42,7.261a1.236,1.236,0,0,0,.566.686l5.9,3.316a5.388,5.388,0,0,0,.653.873l3.091,6.777a1.236,1.236,0,0,0,.589.6L29.8,34.409,31.56,39.7Z" transform="translate(-0.001 -0.002)" fill="#fff"/>
  <path id="Path_10" data-name="Path 10" d="M362.707,279.415A3.706,3.706,0,1,0,359,275.709,3.71,3.71,0,0,0,362.707,279.415Zm0-4.942a1.235,1.235,0,1,1-1.235,1.235A1.237,1.237,0,0,1,362.707,274.474Z" transform="translate(-329.434 -249.601)" fill="#fff"/>
  <ellipse id="Ellipse_5" data-name="Ellipse 5" cx="1.5" cy="1" rx="1.5" ry="1" transform="translate(33.129 18.083)" fill="#fff"/>
  <path id="Path_11" data-name="Path 11" d="M111.806,61.168a1.235,1.235,0,1,0,2.14-1.235l-2.059-3.566a1.235,1.235,0,0,0-2.14,1.235Z" transform="translate(-100.556 -51.157)" fill="#fff"/>
  <path id="Path_12" data-name="Path 12" d="M177.223,57.418a1.235,1.235,0,0,0,2.14-1.235L177.3,52.617a1.235,1.235,0,0,0-2.14,1.235Z" transform="translate(-160.586 -47.716)" fill="#fff"/>
</svg>
