<svg xmlns="http://www.w3.org/2000/svg" xmlns:xlink="http://www.w3.org/1999/xlink" width="56" height="56" viewBox="0 0 56 56">
  <defs>
    <clipPath id="clip-path">
      <rect id="Rectangle_8" data-name="Rectangle 8" width="56" height="56" transform="translate(-290 -468)" fill="none" stroke="#707070" stroke-width="1"/>
    </clipPath>
  </defs>
  <g id="Mask_Group_4" data-name="Mask Group 4" transform="translate(290 468)" clip-path="url(#clip-path)">
    <g id="waves" transform="translate(-286.904 -457.083)">
      <g id="Group_1" data-name="Group 1" transform="translate(0 0)">
        <path id="Path_13" data-name="Path 13" d="M55.052,96.8a5.317,5.317,0,0,1-3.246-1,7.861,7.861,0,0,0-3-1.224,14.983,14.983,0,0,1-8.887-11.841,7.023,7.023,0,0,0-.1-14.046,20.794,20.794,0,0,0-4.921.631A7.022,7.022,0,0,0,28.112,64C6.1,64,2.83,95.431,2.4,101.582a8.529,8.529,0,0,0-1.231-.1,1.171,1.171,0,1,0,0,2.343,5.3,5.3,0,0,1,3.239,1,7.558,7.558,0,0,0,4.454,1.342,7.563,7.563,0,0,0,4.454-1.343,5.278,5.278,0,0,1,3.23-1,5.3,5.3,0,0,1,3.239,1,7.558,7.558,0,0,0,4.454,1.342,7.559,7.559,0,0,0,4.457-1.343,5.745,5.745,0,0,1,6.479,0,8.083,8.083,0,0,0,8.92,0,5.314,5.314,0,0,1,3.244-1,1.171,1.171,0,1,0,0-2.343,7.582,7.582,0,0,0-4.461,1.342,5.757,5.757,0,0,1-6.486,0,8.069,8.069,0,0,0-8.913,0,5.3,5.3,0,0,1-3.239,1,5.3,5.3,0,0,1-3.237-1,7.56,7.56,0,0,0-4.457-1.343,7.547,7.547,0,0,0-4.45,1.342,5.29,5.29,0,0,1-3.235,1,5.3,5.3,0,0,1-3.237-1c-.287-.175-.594-.353-.924-.524.21-3.848,2.6-35.958,23.408-35.958a4.685,4.685,0,0,1,0,9.371,2.342,2.342,0,0,1-1.56-4.089,2.292,2.292,0,0,1,.762-.456,1.172,1.172,0,0,0-.8-2.2,4.654,4.654,0,0,0-2.079,7.273,13.427,13.427,0,0,0-1.007,5.334A19.431,19.431,0,0,0,29.1,94.959a10.353,10.353,0,0,0-1.616.837,5.3,5.3,0,0,1-3.239,1,5.3,5.3,0,0,1-3.237-1,7.56,7.56,0,0,0-4.457-1.343,1.171,1.171,0,0,0,0,2.343,5.3,5.3,0,0,1,3.239,1,7.56,7.56,0,0,0,4.454,1.341A7.559,7.559,0,0,0,28.7,97.8a5.745,5.745,0,0,1,6.479,0,8.084,8.084,0,0,0,8.92,0,5.761,5.761,0,0,1,6.49,0,7.583,7.583,0,0,0,4.463,1.342,1.171,1.171,0,1,0,0-2.343Zm-12.171-1a5.757,5.757,0,0,1-6.486,0,7.609,7.609,0,0,0-4.325-1.332,17.011,17.011,0,0,1-6.3-12.894,10.791,10.791,0,0,1,.606-3.857,4.647,4.647,0,0,0,1.737.342,7.013,7.013,0,0,0,6.963-6.381,18.374,18.374,0,0,1,4.751-.646,4.685,4.685,0,1,1,0,9.371,2.342,2.342,0,0,1-1.56-4.089,2.292,2.292,0,0,1,.762-.456,1.172,1.172,0,0,0-.8-2.2A4.668,4.668,0,0,0,37.5,82.1a17.372,17.372,0,0,0,7.162,12.785A9.662,9.662,0,0,0,42.882,95.8Z" transform="translate(0 -64)" fill="#fff"/>
      </g>
    </g>
  </g>
</svg>
