<svg xmlns="http://www.w3.org/2000/svg" width="24.912" height="24.552" viewBox="0 0 24.912 24.552">
  <path id="Icon_weather-thunderstorm" data-name="Icon weather-thunderstorm" d="M5.556,20.292a5.742,5.742,0,0,0,1.188,3.564A5.954,5.954,0,0,0,9.84,26L9.048,28.02c-.036.168.024.264.168.264h2.556L10.6,33.444h.336l4.7-6.9a.128.128,0,0,0,.012-.168.189.189,0,0,0-.18-.084H12.852l2.976-5.568c.084-.168.024-.264-.168-.264H12.132a.322.322,0,0,0-.276.18l-1.284,3.444a3.882,3.882,0,0,1-2.124-1.392,3.762,3.762,0,0,1-.84-2.412,3.714,3.714,0,0,1,1.02-2.6,4.01,4.01,0,0,1,2.52-1.284l.636-.084c.156,0,.24-.072.24-.216l.084-.612A5.088,5.088,0,0,1,17.172,10.9a5.158,5.158,0,0,1,5.1,4.584l.084.7c0,.132.072.2.216.2h1.92a3.822,3.822,0,0,1,2.784,1.14,3.812,3.812,0,0,1,.1,5.388,3.978,3.978,0,0,1-2.64,1.248c-.156,0-.24.072-.24.216v1.644c0,.132.084.2.24.2a5.945,5.945,0,0,0,5.736-5.952,5.753,5.753,0,0,0-.8-2.988,5.861,5.861,0,0,0-2.172-2.16,5.934,5.934,0,0,0-3-.792H24.12a7.157,7.157,0,0,0-6.948-5.436,7.177,7.177,0,0,0-7.032,5.6,5.932,5.932,0,0,0-4.584,5.8Zm9.768,11.652a.891.891,0,0,0,.7.924.793.793,0,0,1,.132.012.98.98,0,0,0,.168.012,1.087,1.087,0,0,0,.588-.18.876.876,0,0,0,.384-.576l2.7-10.428a1.025,1.025,0,0,0-.084-.78.992.992,0,0,0-.6-.468L19,20.424a1.012,1.012,0,0,0-.564.18.889.889,0,0,0-.372.54L15.348,31.608C15.336,31.728,15.324,31.836,15.324,31.944Zm4.992-3.672a.9.9,0,0,0,.12.456,1.218,1.218,0,0,0,.612.528,1.407,1.407,0,0,0,.36.06.858.858,0,0,0,.384-.1.914.914,0,0,0,.5-.684l1.728-6.8a2.46,2.46,0,0,0,.06-.324.9.9,0,0,0-.192-.54,1.03,1.03,0,0,0-.552-.384l-.312-.036a.956.956,0,0,0-.564.18.984.984,0,0,0-.36.54l-1.752,6.84a.713.713,0,0,1-.012.132A.307.307,0,0,0,20.316,28.272Z" transform="translate(-5.556 -8.892)" fill="#fff"/>
</svg>
