<svg xmlns="http://www.w3.org/2000/svg" width="18.084" height="18.108" viewBox="0 0 18.084 18.108">
  <path id="Icon_weather-snowflake-cold" data-name="Icon weather-snowflake-cold" d="M8.952,17.292a.864.864,0,0,1,.24-.6.755.755,0,0,1,.576-.252.781.781,0,0,1,.588.252.843.843,0,0,1,.24.6.788.788,0,0,1-.24.576.811.811,0,0,1-1.152,0A.749.749,0,0,1,8.952,17.292Zm2.376,0a.864.864,0,0,1,.24-.6.755.755,0,0,1,.576-.252H16.02L13.284,13.7a.713.713,0,0,1-.252-.564.832.832,0,0,1,1.428-.588l2.724,2.724V11.424a.826.826,0,0,1,.252-.6.807.807,0,0,1,.6-.252.755.755,0,0,1,.576.252.843.843,0,0,1,.24.6V15.3L21.6,12.54a.793.793,0,0,1,.576-.252.819.819,0,0,1,.588.252.868.868,0,0,1,.216.588.769.769,0,0,1-.216.564l-2.736,2.736H23.9a.748.748,0,0,1,.564.252.843.843,0,0,1,.24.6.82.82,0,0,1-.8.8H20.028l2.748,2.748a.769.769,0,0,1,.216.564.868.868,0,0,1-.216.588.819.819,0,0,1-.588.252.774.774,0,0,1-.576-.252l-2.748-2.76v3.888a.815.815,0,0,1-.24.588.788.788,0,0,1-.576.24.864.864,0,0,1-.6-.24.781.781,0,0,1-.252-.588V19.248l-2.724,2.724a.84.84,0,0,1-1.428-.588.73.73,0,0,1,.252-.564l2.76-2.748H12.168a.788.788,0,0,1-.576-.24A.614.614,0,0,1,11.328,17.292ZM11.34,23.1a.774.774,0,0,1,.252-.576.713.713,0,0,1,.564-.252A.862.862,0,0,1,13,23.1a.774.774,0,0,1-.252.576.8.8,0,0,1-.588.252.713.713,0,0,1-.564-.252A.755.755,0,0,1,11.34,23.1Zm0-11.652a.774.774,0,0,1,.252-.576.713.713,0,0,1,.564-.252.862.862,0,0,1,.84.828.819.819,0,0,1-.252.588.8.8,0,0,1-.588.252.713.713,0,0,1-.564-.252A.819.819,0,0,1,11.34,11.448ZM17.16,25.5a.748.748,0,0,1,.252-.564.843.843,0,0,1,.6-.24.82.82,0,0,1,.816.8.815.815,0,0,1-.24.588.788.788,0,0,1-.576.24.864.864,0,0,1-.6-.24A.763.763,0,0,1,17.16,25.5Zm0-16.452a.781.781,0,0,1,.252-.588.843.843,0,0,1,.6-.24.788.788,0,0,1,.576.24.815.815,0,0,1,.24.588.82.82,0,0,1-.816.8.864.864,0,0,1-.6-.24A.748.748,0,0,1,17.16,9.048ZM23,23.1a.774.774,0,0,1,.252-.576.713.713,0,0,1,.564-.252.862.862,0,0,1,.84.828.774.774,0,0,1-.252.576.8.8,0,0,1-.588.252.713.713,0,0,1-.564-.252A.755.755,0,0,1,23,23.1Zm0-11.652a.774.774,0,0,1,.252-.576.713.713,0,0,1,.564-.252.862.862,0,0,1,.84.828.819.819,0,0,1-.252.588.8.8,0,0,1-.588.252.713.713,0,0,1-.564-.252A.819.819,0,0,1,23,11.448Zm2.4,5.844a.864.864,0,0,1,.24-.6.781.781,0,0,1,.588-.252.748.748,0,0,1,.564.252.843.843,0,0,1,.24.6.82.82,0,0,1-.8.8.815.815,0,0,1-.588-.24A.781.781,0,0,1,25.4,17.292Z" transform="translate(-8.952 -8.22)" fill="#fff"/>
</svg>
