<svg xmlns="http://www.w3.org/2000/svg" width="29.7" height="21.048" viewBox="0 0 29.7 21.048">
  <path id="Icon_weather-fog" data-name="Icon weather-fog" d="M3.144,25.26a.969.969,0,0,1,.3-.732A1.061,1.061,0,0,1,4.2,24.24H26.6a.985.985,0,0,1,1.02,1.02.892.892,0,0,1-.3.7,1,1,0,0,1-.72.276H4.2a1.106,1.106,0,0,1-.756-.276A.909.909,0,0,1,3.144,25.26Zm3.144-3.768a.953.953,0,0,1,.312-.72.968.968,0,0,1,.708-.276h22.4a.964.964,0,0,1,.972,1,1.016,1.016,0,0,1-.276.72.909.909,0,0,1-.7.3H7.308a.943.943,0,0,1-.72-.3A.979.979,0,0,1,6.288,21.492Zm.156-2.868c0,.108.06.156.18.156H8.34c.072,0,.156-.06.24-.192a3.736,3.736,0,0,1,1.272-1.524,3.65,3.65,0,0,1,1.86-.672l.66-.084c.132,0,.2-.072.2-.216l.084-.6a4.835,4.835,0,0,1,1.644-3.24,5.147,5.147,0,0,1,6.816-.012,4.831,4.831,0,0,1,1.644,3.216l.1.684c0,.132.084.2.24.2h1.908a3.755,3.755,0,0,1,2.112.624,3.834,3.834,0,0,1,1.416,1.644c.084.132.168.192.252.192H30.5c.144,0,.2-.084.168-.276a5.646,5.646,0,0,0-2.088-3.012,5.8,5.8,0,0,0-3.564-1.164h-.384a7.048,7.048,0,0,0-2.52-3.924A6.831,6.831,0,0,0,17.736,8.9a6.922,6.922,0,0,0-4.476,1.584,7.045,7.045,0,0,0-2.508,4.032,5.733,5.733,0,0,0-2.688,1.452,5.823,5.823,0,0,0-1.608,2.616V18.54C6.444,18.54,6.444,18.576,6.444,18.624ZM8.376,28.932a.928.928,0,0,1,.312-.708.977.977,0,0,1,.72-.276H31.824a1.016,1.016,0,0,1,.72.276.909.909,0,0,1,.3.7,1.024,1.024,0,0,1-1.02,1.032H9.408a.991.991,0,0,1-.72-.312A.928.928,0,0,1,8.376,28.932Z" transform="translate(-3.144 -8.904)" fill="#fff"/>
</svg>
