<svg xmlns="http://www.w3.org/2000/svg" width="24.876" height="24.072" viewBox="0 0 24.876 24.072">
  <path id="Icon_weather-rain" data-name="Icon weather-rain" d="M5.568,20.292a5.73,5.73,0,0,1,1.3-3.684,5.783,5.783,0,0,1,3.276-2.076A7.081,7.081,0,0,1,12.672,10.5a7.172,7.172,0,0,1,8.916-.036,6.942,6.942,0,0,1,2.52,3.948h.384a5.958,5.958,0,0,1,2.976.78,5.851,5.851,0,0,1,2.976,5.1,5.933,5.933,0,0,1-2.832,5.088,5.644,5.644,0,0,1-2.88.852c-.156,0-.24-.072-.24-.2v-1.6c0-.144.084-.216.24-.216a3.714,3.714,0,0,0,2.616-1.224,3.829,3.829,0,0,0,1.08-2.712,3.683,3.683,0,0,0-1.176-2.712,3.818,3.818,0,0,0-2.772-1.152H22.548c-.144,0-.216-.072-.216-.2l-.1-.7a4.891,4.891,0,0,0-1.668-3.252,5.125,5.125,0,0,0-6.84,0A4.824,4.824,0,0,0,12.1,15.516l-.084.636a.212.212,0,0,1-.24.228l-.636.036A4.01,4.01,0,0,0,8.616,17.7,3.665,3.665,0,0,0,7.6,20.292,3.829,3.829,0,0,0,8.676,23a3.714,3.714,0,0,0,2.616,1.224c.132,0,.2.072.2.216v1.6a.184.184,0,0,1-.2.2,5.845,5.845,0,0,1-4.08-1.836A5.677,5.677,0,0,1,5.568,20.292Zm6.42,8.028a.819.819,0,0,1,.048-.24l1.956-6.924a.969.969,0,0,1,.384-.528,1,1,0,0,1,.552-.18,1.345,1.345,0,0,1,.288.036.9.9,0,0,1,.648.444.979.979,0,0,1,.1.8L14,28.608a.944.944,0,0,1-.984.768.51.51,0,0,1-.132-.024.777.777,0,0,0-.12-.036,1,1,0,0,1-.588-.4A1.074,1.074,0,0,1,11.988,28.32Zm3.144,3.372L18.06,21.168a.791.791,0,0,1,.36-.528,1.087,1.087,0,0,1,.588-.18,1.489,1.489,0,0,1,.324.036.921.921,0,0,1,.588.468,1,1,0,0,1,.084.768L17.088,32.268a.872.872,0,0,1-.348.516.978.978,0,0,1-.612.216.786.786,0,0,1-.3-.06,1.1,1.1,0,0,1-.624-.468A.951.951,0,0,1,15.132,31.692Zm4.956-3.348a1.279,1.279,0,0,1,.048-.276l1.956-6.924a1,1,0,0,1,.36-.528.975.975,0,0,1,.552-.18,1.466,1.466,0,0,1,.312.036.932.932,0,0,1,.552.372,1.012,1.012,0,0,1,.18.564,1.377,1.377,0,0,1-.024.168c-.012.072-.024.12-.024.144L22.044,28.6a.886.886,0,0,1-.336.552,1.014,1.014,0,0,1-.612.2l-.288-.06a.971.971,0,0,1-.552-.384A1.1,1.1,0,0,1,20.088,28.344Z" transform="translate(-5.568 -8.928)" fill="#fff"/>
</svg>
