<?xml version="1.0" encoding="utf-8"?>
<!-- Generator: Adobe Illustrator 21.0.0, SVG Export Plug-In . SVG Version: 6.00 Build 0)  -->
<svg version="1.1" id="Layer_1" xmlns="http://www.w3.org/2000/svg" xmlns:xlink="http://www.w3.org/1999/xlink" x="0px" y="0px"
	 viewBox="0 0 512 512" style="enable-background:new 0 0 512 512;" xml:space="preserve">
<style type="text/css">
	.st0{fill:#FFFFFF;}
</style>
<g>
	<path class="st0" d="M405.1,42.3c-24.3,0-48,8.4-67,23.6c-6.5,5.2-7.5,14.6-2.3,21.1c5.2,6.5,14.6,7.5,21.1,2.3
		c13.6-10.9,30.7-16.9,48.2-16.9c42.4,0,76.9,34.5,76.9,76.9s-34.5,76.9-76.9,76.9H123c-8.3,0-15,6.7-15,15s6.7,15,15,15h282.1
		c59,0,106.9-48,106.9-106.9S464,42.3,405.1,42.3L405.1,42.3z"/>
	<path class="st0" d="M94.3,196.3h160.2c8.3,0,15-6.7,15-15s-6.7-15-15-15H94.3c-8.3,0-15,6.7-15,15S86,196.3,94.3,196.3z"/>
	<path class="st0" d="M250.3,286.3H15c-8.3,0-15,6.7-15,15s6.7,15,15,15h235.3c34,0,61.7,27.7,61.7,61.7s-27.7,61.7-61.7,61.7
		c-14,0-27.7-4.8-38.6-13.6c-6.5-5.2-15.9-4.2-21.1,2.3s-4.2,15.9,2.3,21.1c16.2,13,36.6,20.2,57.4,20.2c50.6,0,91.7-41.1,91.7-91.7
		S300.9,286.3,250.3,286.3L250.3,286.3z"/>
	<path class="st0" d="M15,196.3h20.2c8.3,0,15-6.7,15-15s-6.7-15-15-15H15c-8.3,0-15,6.7-15,15S6.7,196.3,15,196.3z"/>
	<path class="st0" d="M196,361c0-8.3-6.7-15-15-15H91c-8.3,0-15,6.7-15,15s6.7,15,15,15h90C189.3,376,196,369.3,196,361z"/>
</g>
</svg>
